<mxfile host="app.diagrams.net" agent="Mozilla/5.0 (Windows NT 10.0; Win64; x64) AppleWebKit/537.36 (KHTML, like Gecko) Chrome/138.0.0.0 Safari/537.36" version="28.0.7">
  <diagram name="페이지-1" id="ipzkT8L5Bp2f69PiMoVd">
    <mxGraphModel dx="1208" dy="1155" grid="1" gridSize="10" guides="1" tooltips="1" connect="1" arrows="1" fold="1" page="1" pageScale="1" pageWidth="827" pageHeight="1169" math="0" shadow="0">
      <root>
        <mxCell id="0" />
        <mxCell id="1" parent="0" />
        <mxCell id="-OvGYXSZSJ38qiEq_mE2-44" value="" style="shape=image;verticalLabelPosition=bottom;labelBackgroundColor=default;verticalAlign=top;aspect=fixed;imageAspect=0;image=data:image/png,iVBORw0KGgoAAAANSUhEUgAAA4AAAAJ1CAYAAACIHJ5JAAAAAXNSR0IArs4c6QAAAARnQU1BAACxjwv8YQUAAAAJcEhZcwAADsMAAA7DAcdvqGQAAPpbSURBVHhe7N17XFR1/vjx1yAioiiIF1BBQEUhsRBsk8oUXX+K1W76rTbpsi12WTW1oNotspu1uwVttWo3qc2CNk1qM8ktQaNEU5RSA0UFBANUkFEQR27z+2MuzJw5A6got/fz8ZiH8jn3M2dmzvt83p/PRxMaGqpHCCGEEEIIIUSX56AsEEIIIYQQQgjRNUkAKIQQQgghhBDdhASAQgghhBBCCNFNSAAohBBCCCGEEN2EBIBCCCGEEEII0U1IACiEEEIIIYQQ3YRGbRiId955R1kk2tFDDz2kLBJCCCGEEEKICyY1gEIIIYQQQgjRTUgAKIQQQgghhBDdhASAQgghhBBCCNFNSAAohBBCCCGEEN2EBIBCCCGEEEII0U1IACiEEEIIIYQQ3YQMA9EJXK5hICZOnMjzzz/P4MGDrcrr6ur48MMPefvtt63KhejuXFxcWLp0KTNmzKBv377U1NTwww8/8Prrr3PixAnl7ACsWrWKa6+9VlnMzp07WbBggbJYCCGEEOKykgCwE+isAeAdd9zBI488Qu/eva3K9Xo9R48e5bXXXiMzM9NqWmv4+/vz5JNPEhISgoODoRJbp9ORmprKyy+/rJy9VR588EH+8Ic/0K9fP6vyxsZGPvvsM1555RWrcnvef/99xo8fryxGr9fzzTff8PTTTysnXRB7wURz9Ho958+fp6amhqKiInbv3s3//vc/8vPzlbPa1V7bbY2L2bfW+O9//8uLL75oVfb8888za9Ys83WH8Th37dpFbGwsNTU1VvPTzP5JACiEEEKI9iApoOKy2b9/P5WVlcpiNBoNI0aMYPbs2cpJrXLbbbdZBX8Azs7OTJ8+nenTp1vN2xpBQUHcfPPNNsEfQHV1NXv37lUWq5o5cya+vr7KYjAe8/jx4wkODlZOuuw0Gg3Ozs4MGDCAa665hujoaJKSkvjggw+YNGmScvY2017bvVymT5/OjTfeaHXdYTzOcePGXfT1LIQQQghxJUkAKC6bnJwcDh8+rCwG403z6NGjcXFxUU5q0VVXXWVzEw7Qt29fJkyYoCxu0bhx43B3d1cWA1BeXk5GRoayWNWNN96Iq6ursths0KBBTJkyRVncLnr27ElwcDAJCQm8+OKLF/U+XIz22m5bGDVqlE1ttomLiwtjx45VFgshhBBCdDi2d9FCtKF9+/ZRW1urLAZg4MCBhIeHK4ubNXnyZIYPH64sBsDBwUE1/bIlY8eOxdnZWVmMXq/n0KFDqml9Sj4+PgQFBaHRaJSTzBwdHS9q/y4nJycnZs6cSXx8/BUNxtpru0IIIYQQ3Z0EgOKy2r9/P1qtVlkMQJ8+fRg3bpyyuFkTJkygf//+ymKzwYMHM3nyZGVxswICAlQDN51Ox88//6wsVjVt2jSGDBmiLLYxcuRIZs6cqSy+ZPX19RQWFnLo0CGbV1FRETqdTrmImUajISwsjCeffFI5qUXttd3WaG7fWvM6fvy41foOHz7MuXPnrMpMdDodBQUFymIhhBBCiA5HAkBxWe3atYtff/1VWQxAjx49CAgIUBY3a/z48fTo0UNZbNa/f/8LSgOdPHmyTSc4JuXl5ezYsUNZrCo8PBwnJydlsQ1XV1duvPFGZfElq62t5f333+euu+6yec2ZM4cbbriB119/nZMnTyoXBWPt6eTJk7ntttuUk5rVXtttjeb2rTWvd99912p9mzdv5vvvv6exsdGqXK/Xs3fvXlJSUqzKhRBCCCE6IgkAxWX3yy+/0NDQoCwGYPjw4QQFBSmLVYWHh9tN/zTp0aPHBaVZBgUF2W23V1BQQFFRkbLYxvTp0xk5cqSymDNnznD+/HmrMo1GQ1BQED4+PlblV8LHH3/MwoULOXTokHISGIPTm266SVl8ydpru5fDP/7xD7744guqq6sBqKmp4dtvv+W5555rVaqwEEIIIUR7kwBQXHZ79uzh9OnTymIA3N3dW50GGhoaqtpTp9Lw4cNb3bYwICCAnj17Koupra1l3759ymJVEydOpG/fvspiDh06pDo23JAhQ5g2bZqy+IrIz8/nww8/5MyZM8pJYDwfEydOVBZfsvbablurqanh5ZdfZsqUKYSFhTF58mSeeuop1fdZCCGEEKIjkgBQXHYZGRl2b5CdnZ1b3Xvi+PHjcXR0VBbb6NevH6GhocpiGz4+Pvj5+SmLAdBqtezfv19ZbMPHx4ewsDCbXkkbGhrIzc0lNzfXqhxjByitDVAvh02bNnHkyBFlMRhr4+ydk0vVXtsVQgghhBBNJAAUV8TevXtt2k5hTIlsTTvAiRMnMmzYMGUxZ86csVlva3vbvPrqqxkwYICyGIDCwkJ27dqlLLYxZcoUPD09lcWcPn2aPXv28NNPP6l2HDJixIgL7qymLR06dMjmvGEMTocOHaosbjPttV0hhBBCCGEgAaBo0dSpU1mxYgVpaWns3LmTrKwsdu3aRUZGBmvWrGlVBx65ubmqgRCt7LkzNDTUZqy+xsZG9uzZo7reYcOGtZhSGBgYqDquW0NDA3l5ecpiVRMmTKBXr17KYo4ePUpGRgY7duxQrf10c3Pj+uuvVxZfMWfOnFFtl9mjRw+7bSLbQnttt62sWrWKrKwsm9eqVauUs7a5qVOn8uqrr/LNN9+wbds287ZNn8W1a9eyZMkS/P39lYu2aPDgwSxcuJDk5GQyMjLYtWuXef2ZmZl88803vPnmm0ydOlW5qBBCCCE6GQkAhV3BwcGsWrWKv//971x33XX079/fnOqo0WhwcXEhKCiIp556in//+98EBwcrV2GWlpZm062+iaura4sdwYwfP96mrV51dTXp6emq63V3d28xDXTs2LE2qZtY1N61JDw8XHW/6+rq2L17NwBFRUX8/PPP6PV6q3kcHBwICwtrl85gROcSGRnJ2rVreeWVV5g6dSoDBgyweuhg+iz6+/tzzz33sGbNGl588cVWja/o4uLC448/ztq1a7n//vsJCAjAxcXFalgUJycnBgwYQHh4OK+88goff/wxkyZNslqPEEIIIToP27tfIYwdlSQkJHDttdc2O+wCxhvQcePG8fzzz9tt21ZTU8OhQ4dsAiGAnj17NpuyOXHiRHx9fZXFlJeXs3XrVtX1tmadaqmbACdOnCAjI0NZbOOGG27Azc1NWUx5eTnbtm0z/71z506qqqqs5sFY63Ldddcpi68IZ2dn1eC3oaFBdV/bSnttt7N6/PHHefrpp/H391cdq1KNs7MzM2fOZPXq1c3WBrq4uPDyyy9z++23q3ZipEaj0TB27Fji4+N5/PHHlZOFEEII0QnY3omJbs/R0ZHIyEi77ePs8fHx4eGHH7Zb8/Dzzz/bHRi8ueEgxo0bZxNo6fV69u/fT01Njd12dt7e3nZrJQMDA1UHlG9sbGTv3r3KYhsuLi5cffXVqsHMkSNHrHoQzcjIoLS01GoegN69e9sNmC83Hx8f1cC+vr6eU6dOKYvbTHtttzN6/vnnuf3221VTjFtialv70ksv2Q0CY2NjCQ8PV72GW9KrVy+uv/56u59ZIYQQQnRcF/7LL7o8jUZjdZNeW1tLUVERhw4d4siRI+Yx0NQEBATw0EMPKYsB2L9/P5WVlcpiaGE4iKuvvtpmkPWamhqys7MB+PHHH6moqLCaDuDh4UFYWJiyGIzpn2o31tXV1a0KAGfPno23t7eymPPnz9ukj9bU1PDzzz+rdn4SFBR0xYPA4OBgRo8erSwG4OzZsxQWFiqL20R7bbczWrBgAb/97W9Vg7PGxkZOnTrFoUOHzJ/JM2fO2NSCA4wcOZL7779fWUx4eDg33HCD3fWfOHHCvP5ff/3Vpt1mbW0tqamp5OTkWJULIYQQouOz/fUXwqiuro5vvvmG3//+98yZM4e77rqLO++8k8jISL788kvq6uqUi+Do6MgNN9yg2rYtJyeHw4cPK4uhmeEggoODVQdZLy8v5+effwZjOzt7wy1cffXVymJ8fHwYM2aMshiM621N+uekSZNUazpPnDjB1q1blcXs2LEDrVarLKZ///5ce+21yuLL6v/+7/8YMmSIshgsOq+5HNpru53NxIkTmT17ts1DD71eT15eHkuWLGHGjBncdddd5s9kREQEb7/9ts04iw4ODvzmN7+x6bzl2muvVa0BP3nyJC+99BKRkZHm9f/ud7/jlltu4dNPP+XUqVM0NjaSlZXFu+++q1xcCCGEEJ1AlwgAvby8CAgIsPvy8PBQLiJaUFtbyyeffKI6yHVNTQ0vvPAC27dvV611aK5t2759+6itrVUW2x0OIiwszOb90+v1HDhwgKKiInOZvTRQf39/mzS1q6++moEDB1qVYVzvoUOHqKmpUU6yYq8mS6/Xk5OTY7VfJhkZGRw9elRZTI8ePZg4caJqMNnWXFxc+Mtf/mK3Zun8+fNWbRfbSntu94UXXrDpsbO5V0ZGBpGRkcpVXVGzZ89m0KBBymIOHz5MXFwc27dvV04CIDExkVWrVtnU0Lu5udl8Ht3c3GxScRsbG8nIyOC///2vVTnGBxuvvvoqM2bM4Nprr2Xx4sXKWYQQQgjRSdjejXUyAQEBDB06FFdXV7svtYBD2NfY2EhaWhpvvvmmcpKVb775RrXjjt69e9sEXSb79+9XrQnDznAQwcHBNjUh586d46effrIqs5deqpYGam/4B51OZ65VbM6UKVNUb9BramrYsWOHsths9+7dqrWm3t7ezJ49W1ncZm644Qb++te/sm7dOubOnWtzPk327t3L2rVrlcUXrb2225n5+Pioti2tqqpi7dq15OfnW5UrffbZZzbzODg4cNVVV1mV2XsAovYQRQghhBBdS6cOAAMCAlocO6ywsFA1SBH2NTQ08OuvvyqLbWzatImSkhJlMRhvZNXs2rXLblsv5XAQQUFBjBo1ymoegIqKCn788UerMnvppb169eKaa66xKrM3/EN5eXmzARzGWqXrrrsOR0dH5SSOHTtGWlqasths27ZtlJeXK4txcXG55G71m6vtev3115k7dy5Dhgyx25NkaWkpH330UYu1n0rttd2u6rrrrlMNzk6ePMn//vc/ZbGqgoICZREDBgywGhdTbeiUHj16EBERwU033aScJIQQQoguxPYuuJNobfCn1jmIaDtq6Y4A/fr1s5vWmJeXZ9OpBMahGyzTQNXSPzEOKq+2XXvppX5+fuaAtLnhHwoKClTXa2ny5Ml4eXkpi2lsbDT3SmrPvn37OHLkiLIYgNGjR9vtsfRyKyoq4m9/+xuZmZnKSZdVe223I/P19VXtnMjf35+MjAybIFvt9bvf/U65OC4uLlafpaNHj3L+/HmreQCGDh3KSy+9xKuvvnrFOycSQgghxJXRKQPASwn+PDw8VNMKxcWxlzLm4uJik3ZmsmfPHk6fPq0sBkWwds0119jcDKulf5pkZWWpvucDBw40t4GyN/xDbW2t1dAN9tx4442q1151dTW7du1SFtvYs2eP6o33oEGDmDJlirL4sqqtreWbb77h4YcfvqJBWHtttzNwc3NTrZ2+VA4ODlbr/eyzz+w+jHB2dmbq1Km88cYbpKens2LFCmbOnKmcTQghhBCdVNvfaVxmlxr8+fr64uTkxJgxYyQIbAMnT55UbdfWnIyMDJuOZUwGDBjA1VdfjY+PD35+fsrJVFZWsn//fmUxGGvYiouLlcX07t3bnAZqb/gHrVZrd70mwcHBjB8/XjWd8ciRI2zevFlZbGPr1q2qx+7o6MhvfvMbZXGb0+v1nDp1im+++YaHHnpItZOfy6E9tltTU8OyZcsICwtr9Wvy5MmkpqYqV3XFKMe7vFxqamp4++23m30PNBoN/fr147rrruPFF1/km2++IS4ujsGDBytnFUIIIUQn0qkCwLYI/kwkCGxfe/fuVR0Xr3fv3gQGBtptC3X48OFmxx7bu3evakAaGBiIv7+/aptCjNdNSzV49lJSAUJCQmxS8dReKSkpquMHYky/u9ialvr6egoLC81jt5leeXl5bNmyhQ0bNvDaa69x3333MWPGDJ566qlW1Xi2pL22Ky7M8ePHbR5wZGZm8swzz3DgwAHV3nwtaTQaBgwYwO9//3s++ugj/u///k85ixBCCCE6iU4TALZl8GciQeCl69evn0138q2Rm5urmj7q4OCAv78/11xzjU1PnefPn7eb/mmye/duu72B/va3v1WtYWloaCAvL09ZbCM8PPyyXiuurq7ceOONyuJWqa2t5f333zeP3WZ6zZs3j8cff5znn3+e5OTkZoPni9Fe2+2qdDqdsgiAnTt32tRWXsjr9ttvV23funv3bu6++26eeOIJdu7caXf7ljw8PFi4cCFz585VThJCCCFEJ9ApAsBLCf4w3rDYI0HgpenVq5dqm6X6+nrOnj2rLDZLS0tT7YkQYMiQIao1dRUVFWRlZSmLrezatUu1B1NnZ2euuuoq+vTpo5zE6dOn2bNnj7LYysyZM1UHpG9LGo2G4OBgu0NoiK5P7eEFxgctl9OWLVtYsGABM2bM4O9//zs7d+7kzJkzdmsGXV1duf322+329iuEEEKIjsv2zr2DudTgD+P05kgQePGGDRumLALgzJkzzdb61NTUcOjQIdUbzEGDBjFkyBBlMfn5+c2u02Tv3r3U19dblZnGQlN7j0+cOEFGRoay2EpISAh9+/ZVFre5gQMHXpG2gKJjKisrU+3JVjmMw+VSU1PDZ599xoIFC4iIiOCVV17h2LFjqp/TYcOG2QwwL4QQQoiOr0MHgG0R/NHKHh4lCLxwwcHBdgNAtXQzpZ9//lk15czZ2dmmpq62trZVg7RjXO+ZM2eUxfTv39+mA5fGxkb27t1rVabk4+NDWFiYak3n2bNnbdq/teaVn5+v2huok5OTdL/fjR08eJDq6mplMW5ubowbN05ZfNmtW7eOxx57THVsQUdHRwYMGKAsFkIIIUQHZ3tH20FcSvCnFsRJENj2pk+fzqBBg5TFnD9/ngMHDiiLbezYsUN1YHQ1rUn/NMnIyODYsWPKYlXnzp0jNzdXWWxl2rRpqmP/6fV6fvjhB5v2b6153XHHHXZrM0eOHMn06dOVxaIbsNdDrpOTE1OnTrU7tubllJ+f3+J3pxBCCCE6jw4ZAF5K8AcwZswY1Rt2CQJbp0ePHnZr9kzCw8P57W9/i6Ojo3ISZWVlbN26VVlso6ioSLVmQU1xcXGL752lvXv3qg42r3T8+HHS0tKUxVauvvpq1euhpqaGHTt2KItbbffu3ao9lvbt2/eKpPuJjumHH35QvS7Gjh3Lk08+qSxWdd9997F+/XrWrFlDaGiocjIAoaGhPPnkk0RFRbUYWKq1o25sbKSmpkZZLIQQQogOrsMFgJca/GEM4oYOHap60yJBYMscHBz4f//v//HWW28RHBysnMzvfvc7nnzySdXxwBobG/nxxx9blQKKcew+tTZPlurq6lpM01Tav39/s53QYKzBO3ToULM3seHh4XY7ZTl27FiLwWNztm3bploD6uDgQFhYmHSw0U2lpqaqPhhxcHBg1qxZdj+XALfffjtr165l0aJFjBgxgqCgIJYsWWIT4E2cOJEXXniB22+/naVLl/LJJ59w9913W81jsnjxYq699lplMWfPnuXw4cPKYiGEEEJ0cB0qAGyL4M9y+aFDh6oGcRIEtszBwYGJEyeyevVq/vvf//LJJ5/wySefkJqaSlxcnN0awiNHjvDZZ58pi+3av38/Wq1WWWylsrKS3bt3K4ubtXnzZkpKSpTFVnQ6XYvtCm+66SbVoSMaGxv5+eefmw0eW7Jv3z4OHTqkLAbAy8uLadOmKYtFN1BUVMT69eupqqpSTrL6XKamppo/l2vXriUjI4Mnn3wSf39/q7auajWHc+bMMT/A0Wg0DBs2jKVLl5KRkcHatWv55JNP+PTTT0lPT+eee+6x+R7U6/Xs37+fzMxMq3IhhBBCdHwdJgBsi+APRaqSqSZQjQSBrWNKBx09ejSjR49m8ODBNh2pmJw+fZpPPvmE/Px85SS7du3a1WIvrb/++muLg7SrsTfYvEl5eXmzKZwuLi6EhISodv6i1Wr54YcflMUXbPv27apBpJOTE1dffbWyWHQT69evZ926dXZrx3v06MHgwYPNn0t/f3+bWj57brnlFq677jrVz7GLiwv+/v6MHj2akSNH0q9fP9X5Tp48eUEPeoQQQgjRcdje2baDtgr+XF1dbdI+XV1d7a5bgkB15eXlFBQUqHb9bs+pU6d44403+PLLL5WTWpSXl2e3vV59ff0Fp3+a7N27V7VHRZOCgoJmU1Vnz56Np6enshiAo0ePtkntx48//sjJkyeVxQAEBQVJj6Dd2KpVq3j77bdVe7RtrfPnz7Nu3TqeffZZc1laWhppaWl2g8uWnDp1irfffrtNrn8hhBBCXHntHgC2VfCHMW1OycnJqdnx2yQItKXVannyySfJzs5uMQjU6/UcOHCAv/71rxcV/AHs2bOH06dPK4vBOJ7ghaZ/mmRkZFBaWqoshla+79dff71qrUptbW2b3fwWFRWRlZWlWlPp5ubGTTfdpCwW3ciaNWt4/PHH2bNnj92HJGrq6urYt28fsbGxvPrqq1bTampqWL58OTExMRw4cED12lPT2NhITk7OJX3WhRBCCNH+2jUAbMvgr7l1DRw4UFlkpTXBQHcJAhsaGvjll1/Iz8/nwQcf5OWXX2bv3r2cPXvWHAw2NjZy+vRpdu7cybPPPsvdd9990UEazXR9j7GjlYsNtmpqajh48KBqEKvVatm/f7+y2GzixIkEBAQoi6mrq2PHjh18+umnykkX7dNPP2X//v02N+IODg6MGzdONQgV3cfu3bt58MEHWbBgAampqRQXF6PT6ayu69raWs6cOUNubi6ffvopUVFR3H///Wzfvt1qXZa2b9/O3XffzZ///GfV9er1enQ6HSdOnODbb79l6dKl3HvvvZf0WRdCCCFE+9OEhoba3B2/8847yqI211zAZtLa4M/Ly8tuWz+TvLw81U4VLDk5OdntXc+ktraWgwcPXnT61MV46KGHlEVCCCGEEEIIccHapQawLYM/V1fXFoM/jGOrtURqAoUQQgghhBBd2RUPANsy+MNOuz81ltt0cnKy6SzGRIJAIYQQQgghRFd1RQPAtg7+PDw8WlyfPc3VGkoQKIQQQgghhOiKrlgA2NbBH4pavZb06tXL6m8nJ6dml5cgUAghhBBCCNHVXJEAsLU1dRcS/KEY9L0llkGaqQOXltJHJQgUQgghhBBCdCVXJACsqqpqVa+ZrQkSTS4m4FIuo6wVVCNBoBBCCCGEEKKruCIBYGuHTvD19W11ENia4K2tSBAohBBCCCGE6AquSABIK4NAJyenVgeBFxNomYJGU+qok5NTq9dTW1vb7L7TinaFQgghhBBCCNGerlgASBsHgc2toyWW627tery8vFoMFquqqi64HaMQQgghhBBCXClXNACkDYPA8+fPK4ta5OHhgZPFGIDN7YMlDw+PZoeNwBj85eXlKYuFEEIIIYQQosO44gEgbRQE1tbWUlVVpSxuloeHB8HBwea/W7O8h4cHvr6+ymIrEvwJIYQQQgghOoN2CQBpwyDwUrQUAErwJ4QQQgghhOhK2i0ApA2CwJKSkmaXbU5L7fUk+BNCCCGEEEJ0Ne0aAHKJQWBtbS0lJSVWZa1VWlqqLDKT4E8IIYQQQgjRFbV7AMglBoEVFRUXHAQWFhbaTf+U4E8IIYQQQgjRVXWIAJBLDAJLS0tbFQTW1taSl5dnN/VTgj8hhBBCCCFEV9ZhAkDaIAjct28fFRUVVrV7tcbeQktKSti3b5/U/HVwS5Ys4V//+hdBQUHKSR3KM888Q1ZWFmvXrlVOapVVq1aRlZXFqlWrlJO6pbVr15KVlcUzzzyjnNShREZGkpGRQWpqKhMnTlROFkIIIYTo8DpUAMglBoG1tbUUFhaSl5fHvn37zK+8vDxp89cJ+Pj4MGXKFEaOHEmfPn2Uk4UQQgghhBCXqMMFgFxiEGhSW1vb7PImEvx1HAEBAfTv319ZLIQQQgghhGgjmtDQUL2y8J133lEWtQsnJyfGjBmDk5OTcpKZqdbPXmpnczpL8PfQQw8piy7Z7373O+666y78/Pzo0aMH1dXVfP311/zjH/8AY4piWFgYW7duZdSoUXh7e6PX69m/fz/Lly8nPz9fuUqWLFlCZGQkAwYMQK/XU1paykcffURqairx8fFMnDiR4uJiYmNjyc/P59FHH+XOO+/k1KlTHDx4kN/85jdW73VNTQ1///vfufnmm5k4cSLfffcd/v7+eHt7U1xczMMPP4y3tzeLFi0yXyc1NTXs3LmTV155hRMnTpiPY9u2bQQFBTFgwABOnTpFYmIikydPJjQ0FEdHR06dOsWaNWtISkoCIDQ0tNn1PvPMM/zud78jPz+fv/zlL8THx+Pt7c0333zD008/DcYazX/+858MGzaMTz/9lH/+85/mY1u1ahXXXnste/fuxcnJiYCAAADy8/N59dVX2b17t9U27rjjDgAefvhh7rvvPiorK3n22Wf55ZdfePLJJ7npppvo27evef1YnL/Ro0cze/Zs3N3d0Wg05ul1dXUUFxfj5+dHUVERjz76KEVFRQC89NJLzJgxg7179/LII49QU1NDcHAwL7/8MoMGDSIpKYl//etfuLi48PbbbxMYGGh17Kbj++GHH1i6dKnda+Ozzz4DYwqov78/P/zwAz4+Pnh7e9PY2Eh2djavvPKKzfUWHBzM/PnzCQkJwcXFhbq6Ovbt28ff//538vPzzecpPz+fo0ePMnnyZHr16mX1PrdmHqXIyEj+8pe/UF1dzbPPPsuuXbuUswghhBBCdGgdsgbQpC1qAu3pLMHf5TB27Fjuu+8+PD09+eWXX8jMzKRHjx7ceuut/PGPfzTP5+DgwNSpUwHYtWsX58+fJzg4mOjoaIu1GTzxxBNERUXRu3dvdu/ezU8//cSgQYNYsGABN9xwAx9//DEnT55k+PDh3H///UydOpVZs2bR0NDA2rVrSU9P56effqKhoYEzZ87w7bffsmnTJoqLiwHQaDTmG/Rvv/2WL774giFDhvDss88ybtw4ysrK2LJlC1VVVUyePJm//OUv5n1zcHAgPDyckydPcvDgQdzd3VmyZAkTJkxg//79FBUVMWDAAP7whz8QHBxMcHBwq9Zrkp+fz65du9Dr9YwfP57g4GAApk2bhpeXFydPnmTz5s3KxcAYyPTt25fMzEyqq6sZNWoUS5YswcXFRTmrqkWLFjFr1iwcHBzYsWMHBQUF6PV6GhoaOHjwIGPHjuWOO+6gb9++ZGdnc+DAARoaGtDr9RQWFvLDDz9QVVWFl5cX06ZNA+M+jR8/nrq6On744QdqamoA2LdvH4cOHcLR0ZHAwEAAJk+ezPDhw9FoNAQFBeHj40NQUBDDhw/n/Pnz7Nmzp9lrY8aMGVbHEx4eTm1tLT/++CO1tbXmQFzpnnvuYeLEieb3p7KykpCQEJt5R48ezW9+8xv27Nljfp/vu+8+83Xd2nmEEEIIIbqKDh0AcpmCwO4c/AEcOHCAOXPmMGXKFP70pz/x0UcfkZeXR69evRg/frzVvNnZ2dx9990sWLCAtLQ0NBoNo0ePtponKCiIG264gfr6er766iu+/PJLvvjiC7Zt24arqys33XQTmZmZfPHFF9TX13PDDTewcOFC3NzcSE9P59///jcbNmxg7969NDY2otPpSElJ4eWXX2bfvn3m7RQWFvLII4/w1FNPsWbNGmbNmoWnpyeFhYW8//77bNmyhaSkJLRaLePGjSM8PNy8rOk4nnrqKX799Vd69erF1q1beeCBB3jrrbeoqqqif//+eHt7X9B6Tb777ju0Wi2DBg1iypQpYAxmevbsyd69e62Ow9L+/fuZN28eS5cu5aOPPqK2thYfHx8mT56snFWVr68vDg4OfPvttyxatIj4+HgqKio4e/Ysn376KX369KFXr1789NNPPPjggzz44IMUFxdTW1vL119/zZtvvsmRI0dwcnIyH9eUKVMYNGgQpaWlpKWlWW1v37591NbWMnz4cIKCghg/fjy9e/emuroaDw8PfvOb3zBu3Djc3d2pqKjg1KlTLV4blrZu3cof/vAHFi1aRGpqKnq9nrFjxxISEmI13xNPPEF4eDh33HEHb731Ft999x319fWMGjXKqgOh06dP89JLL7F48WKee+45ysrKcHNzs+rApTXzqKmvr1cWCSGEEEJ0eB0+AKSNg8DuHvyZ/O53v+M///kPP/74I2+99RZXX301AM7Ozlbz1dfXm2uAGhoarKaZ+Pr64ubmhpOTE3fccQcvvPACL7zwAlOnTkWj0eDu7g7Au+++y44dO+jbty++vr4UFhbywQcfKFdnV3l5uVUqoCn48fPz47nnnuOFF17gscceY8CAATg7O+Pm5maet7GxEYCioiLq6uoAOHfuHBgDAJ1OZ573QtZrkpmZSU5ODo6Ojlx33XVMnjyZESNGUFVVxffff6+c3ezcuXPm81tcXIxOp8PJyQlvb2/lrKoqKyvR6/WMGzeOW2+9ld/+9rf069eP6upqSkpK0Gq11NfX4+vry5133sn999/PwIEDOX/+vHnolMzMTGpraxk5ciQzZ85k/PjxODg4kJWVZU4JNcnKyqKiogJ3d3fGjRvH+PHjOXfuHJmZmTg7OxMYGMjYsWNxdnYmPz+fxsbGVl0bJpap3L/++it1dXW4uLgwZMgQq/mCg4N54403yMjIYO3atdx+++307NkTR0dHqw6E6urqzOvct28f586dw8HBAU9Pzwuax+TkyZNUV1dTXV1Ndna2crIQQgghRIfXKQJALjAItEeCP4Nbb72VJUuW4OfnR35+Pps2baKwsFA5W6s1NjbS2NhIbW0tW7duJTU11eplqkVycXFh4MCB5mUGDhzIqFGjFGtrPVNQV1hYaLPNr776igMHDigXaZWLXe+mTZs4c+YM3t7ezJkzBzc3N44cOcKmTZuUs6pydHTEwcEBvV7P+fPnlZNVJSYmkpuby8iRI1m2bBm///3vzbVtOTk5JCYmsnPnTgYOHMjjjz/O/fffT69evUhPTzenpX766acUFBTg6urKzTffzMiRI9FqtXz33XfKzbFv3z6OHDmCs7MzYWFhDB48mJKSEjIyMqiurmbMmDEEBARQV1fHzz//3OprQ02vXr3QaDQ0NjZa1bb5+Pjw17/+lfDwcKqrq9myZQs7d+60+4CiLe3atYvIyEhzm0whhBBCiM6m0wSAtDIItDcgvAR/Ta6++mr69etHdnY2d911F3FxcZSXlytna7WcnBwqKipwdHSkoqKCZcuWmV//+c9/WL9+PRjbq40dO9Y8ZmO/fv24++67W93eTengwYPU19fTq1cv1q1bZ97mO++8Q1JSkk3HIa11sevdtGkTR44coXfv3kycOJH6+noyMzOVs1lxcGj6CAYGBuLs7MzZs2fNHRs1NDTQs2dPfHx8bOYHuOGGG8yB/ObNm/n4449ZsmQJ7777rnl6YGAg5eXlbN68mc8++4wnn3yS5cuXm9dRU1PDjh07aGhoYMKECfTt25ecnBy7+37gwAHq6+sJCQnB1dWVX375hYyMDEpLSxkxYgTe3t5UVFSQlZXV6mvDpEePHub/+/v707NnT06fPm31uRw3bhzDhw+noqKC559/nscff5z9+/ebA3d7pk6dipubG/X19RQUFCgnQyvnmThxYocfp1IIIYQQwp5OFQDSQhBYWFhIRUWFsliCPwVTWuBVV13FqlWrSElJYcKECej1Nh3CtkpRURFpaWnU19fz+9//nk8++YQ333yTTZs28d577/Hwww9z6623MnPmTOrq6khJSeHjjz/m1KlTjB071txxx6lTp6ivr2fgwIHExcWxZs0a/P39lZsz27hxIwUFBXh5efHGG2/w5ptv8tFHH7Fu3TpeffVVc9B0oS5lvZmZmdTV1dGrVy/VNnRKISEhfPzxx7z99tvMmTOHHj16sH//fjIyMjhw4ABnz55l2LBhvPzyy7z77rvcfffd9OzZU7ka/P39mT59OnfffTfvvfceaWlp3HvvvebpgwcPZvr06fzf//0fr732GhkZGTz++OPm6Vu3buXkyZM4OTmh0+nYtm2beZrS7t27qaysxN3dnXPnzpGdnU1NTQ0HDx6kV69e9OnTh+LiYvbt29eqa8PSjBkzePfdd/n3v//NlClT0Ov1bN++3SoVVavVotPpGDBgAI888ggffPABd999t1XwaDJo0CCee+45Xn/9dZ5++mkGDBhASUkJGzduvKB5TBYtWsSbb77JihUrbDqwEUIIIYToDDpdAIidIFCCv9bbuHEjP//8M7169TJ3dPHxxx+b28RdjFWrVvHOO+9w6tQpRo0axaRJk3ByciItLY2srCzuuusuXF1d+fHHH/n3v//Nli1bzCmIs2bNYu7cuXz11Vfs2rWLhoYGhg4dSv/+/Rk7dqxyU2b5+fm8/PLL7Ny5E2dnZ8LDwwkICKCoqIhPP/3Upv1aa13KetPS0jh+/DiNjY2qbegs6fV6du3ahYeHB6GhoWg0Gr777jv+/ve/g7FG8auvvqK6upqxY8cyduxYMjMzOXnyJBjba06YMAGAb775hg0bNpCamkp+fj79+vUjMjKSa6+9FhcXFzIzM/nvf/9Lamoqe/fuxdnZmalTp5o7V9m3b5+5o5ri4mLV4Mdk165d5pTh0tJSMjIywNjRTk1NDXV1dezdu9c8f3PXRkpKinm+uro6du7cyahRoxg3bhznz5/niy++YMWKFeZ5MAbZ3377LTqdjrFjxzJixAi++OILc4+xlky1qNdffz39+vUjJyeHl156yaoWtzXzmJw/f57Gxkaqq6uprKxUThZCCCGE6PA69DiALTG1+auoqOjSwd/lGAdQXB633XYbixcvpq6ujueee85uGmVbCA8P57nnnqOxsZFnn32WH3/8EYAFCxZwzz338Ouvv+Lg4MDAgQOJj4/nyy+/BGMb0NjYWKqrq3n66afJzs7Gx8eHV155BV9fX/MYf52ZcrxEtfH6WjOPEEIIIURX0ylrAE1qa2vJy8vr0sGf6FxuuukmXF1dm21D11aOHTtGVVUVHh4ePPvss7z66qu8//77/OEPf0Cv15Oenk5FRQUuLi4sXbqUf/7zn6xatYqlS5fi7OzMrl27zD1ZTps2DR8fH06ePMnWrVuVmxJCCCGEEF1Epw4A7ZHgT7SHGTNmMH78eM6cOUN6erpycpsrKiri5ZdfZv/+/bi5uTF16lTGjRuHVqvlnXfeYdWqVfztb3/jhx9+wNHRkRtvvJGJEydSV1fHf/7zH/7xj3+AsXfWqVOn4ujoyK5du+yOWSiEEEIIITq/Tp0CqsbV1ZWAgABlsZXOFvxJCqgQQgghhBCiLXTJGsCqqipqa2tVXyUlJZ0q+BNCCCGEEEKIttLlagC7IqkBFEIIIYQQQrSFLlkDKIQQQgghhBDClgSAQgghhBBCCNFNSAAohBBCCCGEEN2EBIBCCCGEEEII0U1IACiEEEIIIYQQ3YQEgEIIIYQQQgjRTUgA2A1NnDiR1NRUsrKyrF6ZmZmsXbuWO++8U7lIu1q1ahVZWVmsWrVKOclKVFQU7733HjfccINyklloaChvvfUWDz74oHJSh/fwww+zfft2UlNTmThxonKyUDgZMoPdT64l785nANC5e/HzI6v5+ZHV6Ny9lLMLIYQQQnQLEgB2c/v27SM1NZXvv/+eM2fO4Ofnx0MPPcStt96qnLXDmzZtGmPGjKFfv37KSWY33ngjEyZMYMiQIcpJQgghhBBCdHkSAHZz+fn5LFu2jEcffZRnnnmGkydP0q9fPyZMmKCctUMLCgpi4MCBymIbPj4+9OjRQ1kshBBCCCFEt6AJDQ3VKwvfeecdZZFoRw899JCy6JJMnDiR559/nsGDB/Pf//6XF198EYxB1N///ne8vLzYsGEDL7zwAqtWrWLixIl89913+Pv74+3tTXFxMQ8//DDe3t4sWrSIMWPG4OTkRENDAwcPHuStt95i+/btPPzww9x3331UVlby7LPPsmvXLiIjI/nLX/4CwN///ndSU1OJjIzkvvvuw8/PDwcH62cSO3fuBODaa6/lwIEDuLi44O3tjV6vZ//+/SxfvpwpU6Zw77330rdvX/NydXV1fPjhh7z99tsAhISE8Mwzz+Dt7Y1Go7Fa/4IFCwgNDW32WCz97W9/Y/r06RQVFfHoo49SVFQEwEsvvcSMGTPYu3cvjzzyCA888ACRkZEMGDAAgKqqKr7++mtWrlxJTU0Na9euxd/f3+o9WLVqFddee615vyyZzufp06fJycnh2muvpVevXpw+fZo1a9bg4eHBnXfeyZkzZ3juuefIzMwE4JFHHiEqKoqSkhJiY2NZunQp1113HTt27GDx4sVW2yj6bTTl10xnyK6v0I6eiM7dC+fKUvy+fIOK4CmUXz2Nxh49ca4sxXfjSvqUHELn7sXBu1/EqaoCl7IjnLpqMno0DNmdSv9DuzgauQCduxcODXUM/DmNYVs+xqGhDoDKMddRMvkP6Nw90ej1uBwvwGfTu7icKASNhuMTb6bsutuo790Xh/pa3PJ24v3t+zjqqql37kvxb//E6VFhNDg543iumkHZ/8Nr2zo0jY2cDJlB0Yz5uBbuI+DTF837CTDm42dwriwFjYYTobMou/ZW6vq6o2mop9/RfYz437v0rDrFaf9ryP99DK7FuWjqznN6dBia+jq809fgUFvDr1PvpdZ1AD10Z/HansKQXV+B3uYrVQghhBCiw5AawG6uT58+REZGcuutt/Lwww/j6enJyZMn2bx5s3kejUbD5MmT6dWrF99++y1ffPEFQ4YMIS4ujnHjxqHVavnhhx8oLS0lMDCQZ555hvDwcKvt2BMcHMzDDz+Mv78/R48eZceOHdTU1ACg1WrZvXu3ed4xY8YAsGvXLs6fP09wcDDR0dEcOXKEnTt3UltbS21tLVu3buXrr78mNzfXvGxFRQXbtm2jvLwcLFJfd+zYQXBw8AUdy3fffUdVVRVeXl5MmzYNjMcxfvx46urq+OGHH1i0aBHz5s3D1dWV/fv3s3v3bnr27Mntt9/Ok08+abW+CzVw4ECuueYa9uzZQ1FREf379+ePf/wjVVVVnDx5Ejc3N2666SYAXFxcuO6663BwcGDXrl2UlZXh5uaGRqPB2dlZuWoA9A49OB4aiXP5MdwOZ3HebQh5856jIngq7rmZuB7LRefuRdGM+TQ49TYvVzPEjyrf8Qz8OY2eNac5PvFmDt0Zh0N9LYOy/4dDfS0nQ/4fp4IMbTQrxt1Ewa1LqHfuy6Cf0/HYt5VzHsM5MvcJzrsN5tTYcH69aR7oGxmclYrr0f3UDPGjrp8HDU69OXzHU5wKDKf3yaN4bfsMp6pyyibdRskNrW/D+uuNf6A44j40+kY8d35J//xszowI5shtsVbHdtrvamrdhzDwp29xaKynePofORq5gF6nSvDYn4G+hyOl199OlXeg1fqFEEIIIToaCQC7uenTp/PCCy+wbNkywsPD0Wq1fPjhh+baI5PCwkIeeeQRnnrqKdasWcOsWbMYNmwYZWVlPPnkkyxdupTHHnuM4uJiBg0axOzZs62Wt8fb2xs3NzdOnjzJK6+8wqJFi0hPTwdg7969JCYmmufNzs7m7rvvZsGCBaSlpaHRaBg9ejTfffcdW7dupb6+nvr6etLT03nhhRf47rvvzMsWFRWRkJBAVVUVWKS+XsyxbNq0iSNHjuDk5GQODqdMmcKgQYMoLS3l6NGj3HDDDWg0GjZs2MD999/Pww8/TEpKCo2NjUyaNMkmqLwQlZWVLF++nMWLF/Pcc89RVlaGq6srgwcPZu/evWg0GsLCwvDx8WH27Nl4e3uj1Wr57rvvqKmpITY2lpiYGJYuXapctZnH/u8Y+Xk8/l++Tp/SwzQ49cZzx+f4pq7Cd+NKnKpPUevqQV0fN/MyjueqGLXub3hv/oDhWz4CvZ6eZ08zat3f8Pn2fQZmf4PewYEaT38anZw5MWEmmoY6hqevYfDODQz58UuG7PqKWlcPKsdcR10/D/QOPeh3dB/e6R8y6rO/c9XqR+l94ijagInUDPHHtTiXEalvMeCX7/H533s4aU+gHXsddS79rY5HTW3/QZwaN5me584wIvUtPH5OZ9jWJNwP7eTc4BFUjRhnntf51K+M/nQ5Pt++z5CdG2h0dMLleAGjP/sbvhtX0K/gZxqcnNF5DLfahhBCCCFERyMBYDdnqgkz1Yb17duXmJgYli1bZjVfeXk5+fn55r99fX1xcHDg119/Zd++fWAMqsrKytBoNIwYMcJiafu0Wi06nQ43NzemTJnC3LlzGTduHI2NjZSVlVnNW19fb64dbGhosJp2KS7mWDIzM6mtrWXkyJHMnDmT8ePH4+DgQFZWFs7Ozri5uaHT6fjll1/Myxw8eJDa2lr69OnDqFGjrNZ3Ierq6syB7L59+zh9+jQajYahQ4fy/fffW9VOXnPNNfTu3ZucnBxzUH/ixAkyMjLM51KNptFwfjX1dWjqagHooTsLgEPtOXqcV1lWr4fGRjDOo2lswKG+Fo0x3dOp6pR51to+7tT2H0RjT2cKb17ELw++wS8PvkHp9f8HGg21/QbRr+Bnelaf4lTg9fz8SCKFNy8y99551ms0egcHqnyu4pcHXueXB9/gwD0vcd7dk/pefWjo5WLelj3nPIZR79yXOpf+HPrDM+Z9OBV4PY09elLX1908r0avB73h2EznQVNXi6becGw9qyvN8wohhBBCdGQSAHZzppqwZcuWsWjRInbs2IGDgwPjx4/HxaXlm+hLlZmZyfr162loaODOO+/kr3/9KyNGjCA3N5fPPvtMOXuH8emnn1JQUICrqys333wzI0eONNeyXWmOjo4A1NbWsmnTJvbu3YuTkxM33XQT48eP59y5c2zbtk25WLvS6BvR6BvpUavDK3M93ukfWr0G/byZ3ieOEpQYy/D0NfSsKqci6AYO/PEfnPG7xhyguhb9YrPs8PQ1OJ0xpPo2R9PQYKilrDrFsIz/WK/n2/fpn5+tXEQIIYQQotOTAFBYMbULs6xtU1NYWEhjYyPDhg0jODgYAH9/fzw9PdHr9Rw9epRTp05RX1+Po6MjvXsb2lOZghUTFxcXrr/+ehwcHEhPT+ebb77h1Vdf5b777rOqcbycWnMsSjU1NezYsYOGhgYmTJhA3759zbVshYWFaLVanJ2dueqqq8zLmDqYOXv2LIcPH6a6uhrAfG4Am05w1Dg4OJjnmzp1KgMGDKChocHcGc22bduoqalhzJgxDBkyhOLiYjZu3GhefvDgwUyePPmKBPj2OFWfwvlUCY2OTjhpTzB410bza+DPafQ+YTjnjrpqhuz6iqAPnsBr++c0ODmjHRWKa9EvODTU0dDLBY+f083LDtrzPwYcyDR3MtOc3ieLcDpbSWMvF/r8eqBpH7JSGbhvC06nTyoXEUIIIYTo9Fq+2xRdmr+/Py+88AIvv/wy69atIywsjNraWjIyMpSzWvnss88oKirC09OTf/zjH7z++uu89tpreHt7c/LkSTZu3Ehubi5arRZ3d3eWLFnCihUriI2NVQ08nJyciIiIYMaMGTzxxBPs3LmTd955B39/f+Wsqqqrq9HpdPTu3Zs///nPfPrpp0ydOlU5mznomjp1KuvXr2fx4sWtOhY1W7du5eTJkzg5OaHT6cy1bDk5OaSnp9PQ0MAtt9zCBx98wNtvv82cOXNwcHBg+/btZGZmcujQIRobG7nxxhtZsWIF69atIzQ0VLkZGx4eHixbtozXX3+dJ554ggEDBnD8+HHS0tIA2LhxI8XFxfTs2ZPGxkarjnVcXFyIj48nISGB119/XbHmK0dTX8eQnV/hUF9L0Yz5HL79KY5NvYdf5r/G3gVvc9r/GsomzSE75mMO3/4UxdP+yMlrfotDQx39CvfSL/8nXI/+Qs0QP3KiEzg29R6O3BbLT4vf58jvY9A79lRu0kbPmtMM2vM/Gh17cnjuXyi4dQlFv/0T+x5eyS8PvIHOY5hyESGEEEKITk8CwG4uODiYyMhIZsyYgY+PD2VlZbzzzjusWrVKOauV/Px8/va3v7F//37c3Ny44YYb8PLyIjc3lxdffJHMzEz27dvHf/7zH06dOoWPjw8TJkxg//79VjVq06dPx9PTk6NHj/LZZ5+RmprKd999h06nIzg42NzLZksyMjLYunUr58+fx9PTE3d3d7y9vZWz8cUXX3Dy5ElcXV0ZMmQIw4YNa9WxqNm3b5+5zaCylu3111/nP//5D1VVVYwbN47Q0FDq6upYt24d//jHP8CYRrpz504cHR35zW9+Q9++ffn222+pq2u+9qq4uJiTJ08SHh6Oh4cHhw4dIiEhwbwvNTU17Nq1i4aGBk6ePMnWrVvNy9bU1KDVatHr9eh0Oou1Xnn9D2cx6rO/0Ut7nNN+4zk+8WYanFzwylxPv8K99D+0E9eiHM74XMWJ0FloGuoZtjUJt8NZODTU4ffffzJ4zyYanPty/NpbOO0fguuxAwz7LsncNq8lg3d/jW/qWzjqqjk1NpyTITNwqK9l+JY1OJ8qUc4uhBBCCNHpyTiAnUBbjwPYkSxfvpyZM2fy1Vdf8dxzz4GxlmrNmjUMHTqUDz74gPfee0+5WIfg4+PDK6+8gq+vL0lJSfzrX/9SztJuTOM3fvPNNzz99NPKyUIIIYQQopuSGkDRro4fP059fT0zZszggw8+4NVXXyU5OZkRI0Zw9OhRc1pjRzRt2jR8fHxsatna28yZMxk7dixVVVV8//33yslCCCGEEKIbkwBQtKt//etffPLJJ+ZUSVOnJpmZmbz88stXrCOYC+Xi4sLUqVNxdHRk165d5vTLjmDGjBnmTmk2bdqknCyEEEIIIboxSQHtBLpyCqgQQgghhBDiypEaQCGEEEIIIYToJiQAFEIIIYQQQohuQjUFVAghhBBCCCFE1yM1gEIIIYQQQgjRTUgAKIQQQgghhBDdhASAQgghhBBCCNFNSAAohBBCCCGEEN2EBIBCCCGEEEII0U1IACiEEEIIIYQQ3YQEgEIIIYQQQgjRTUgAKIQQQgghhBDdhASAQgghhBBCCNFNSAAohBBCCCGEEN2EBIBCCCGEEEII0U1IACiEEEIIIYQQ3YQEgEIIIYQQQgjRTUgAKIQQQgghhBDdhASAQgghhBBCCNFNSAAohBBCCCGEEN2EBIBCCCGEEEII0U1IACiEEEIIIYQQ3YQEgEIIIYQQQgjRTUgAKIQQQgghhBDdhASAQgghhBBCCNFNSAAohBBCCCGEEN2EBIBCCCGEEEII0U1IACiEEEIIIYQQ3YQEgEIIIYQQQgjRTUgAKIQQQgghhBDdhCY0NFQPoNfr0Wg05gnyt/x9Of/e/XYWNP1pS49M7wbTQx8KM/zZwvUif8vf8rf8LX/L3/K3/C1/X9rfJuYAUIgrafc7Wcoi0Q2ZAkAhhBBCCHFlSAqoEEIIIYQQQnQTGr1eLzWA4oo7cuQII0eOVBaLbkauA3E5yfUlLhe5toQauS5ERxUWZp1xJTWAQgghhBBCCNFNSAAohBBCCCGEEN2EBIBCCCGEEEII0U1IACiEEEIIIYQQ3YQEgKJdSN9DQgghhBBCXHkSAIp2oTYopRBCCCGEEOLykgBQCCGEEEIIIboJCQCFEEIIIYQQopuQAFAIIYQQQgghugkJAIUQQgghhBCim5AAUAghhBBCCCG6CQkAhRBCCCGEEKKbkABQtAsZB1AIIYQQQogrTwJA0S5kHEAhhBBCCCGuPAkAhRBCCCGEEKKbkABQCCGEEEIIIbqJLhUAblsWRlhY0ytqTYlyFiEui6jdoFF5JVQAFRC0G4IOG+YtOAyaXOUaROdXwsfzrL+D2u57aBtxYWGELdumnCC6mc72O7dtWRxy1XYeyusrLCyKj4uVc7VS8cdEXcryop2p/6aFhYURl6GYc03UpV0rba34Y6I6wfdje+oyAWDJmiiWHF7Kl1lZZGVlkZX1Bn5vrpIfHnHFzBsC+lDrV4xH0/QQZ8u5RVc1ZvGXxu+gLLI+Xwpv3mrzY3nBioEAGDPKTzlFdCOd73duG1+nKstEh2S8YV7CG03fX1lZZL3mx+u3SRDfnVn9phm/d3hM7YGkH37eiqJ25uc7VFkkjLpIAFhC+qaDjJkZQdNbfT3Ls5ZzvdV8QrQDD8gJhaThygmiy/O+mwWRsGmz8ofyAnlfz/LkLJLulR+z7qsT/s4VF1CgLBMdUAkfP/k6ByPfIOsFxdU0eTlZHfkaE+3gepZ/vpQxqUvMDzeH3pvUsa4T77tJyspi+WTlBGHSRQLAofiNgoP2noRmxBEWZv0Ea9uypqcXJWuiCFu2zSL1IY5tiqrvpif424gLi+LjDMPTMnMKTkZcU/X4vI9pqnRWVKFbTLPZ7ryPyV4TZbOvpvSvS65FEO0mypQOqsaYImpKG406ZjHtmHVKqdU00TkZn7Rbf7cYvyeUT1TN312G6VbfAc2sxyrtJSPOJjWn6fvP/veT6Gja5nfOkKplfL8trrdtywzXjWUKoHX6lDENWe1aKf6YqLA4tpl/B6P4OCWOsNte5yCbWBIWZrNvogMpTufrvDEsfaDl23er68fmvsT6+yTqvQOWE0GZYirfN52X8uFmRpzV+2mdSqzyvaSc1sL3l/L3zvzdZK/cdK+u/N0zz2s5zfa+Xvmb2RV1kQAQrn9gKWPMPzTKH65WSF3C19MN1dtfLi5gSditHHjYlAIxk02PWV6YB3n9bXjVnIJzK2FvjzWm5XzJUl7nceP2S9Y8ztczm6rP3xjVNE253azkuwm591WWBmxilcU8JWtWsSnyjS71JEPGATSqgKBCCLFIH+V4U7AYddw6tTRKubzo2DLiWJJqcWNV/DFRt72O32uWqTRRfFw8lLsfngmpX1t8z5Tw8dubmPmaylPVFtZzcFN60w/x5k3AQb7e0vTD+LVxn0rWPM7rWKQU/sOPgi7+o9eZtcXv3OO8ar5mZlo8wQc4+OatTb9Hny+FNx833gRtIy5sCQUWqWBvjHqdW61u4DexZPMs4/Qk7p6znKzPlzKGmbyRldWxageEtYIDHGxF+l7JmihufdPP+H4arpGCx5qCwG3LbrX6Pnl1VAEHLZbftizMKoX5y5lfc6vyoZfoNPxGjYHDBbZBfEYcS1JNn/sssrJmgfkasb4GsrJmUdDi95ihhhqL759XfQsosVtuy2a7r/nx+m2WQZ7lfX0Wb0Qe5PUnu/YDii4TAJqqew0/OIYfsgt6uhSwlAXGAGuorx8wk1mmgMtvLGMosLoxmvnw3cY0HD/GBmCRlmN8SnvYkPgy9N4kq7Qtv1FjzNPAersGyhu4bax68yAzp3etn86uOA5g8nHr2jpTpy/NKaiEXBfr9NDl/SGxsunvbF3T/yMljbTDO/jmrU1PGR+DN7KSuNt4Y1Wy5WsOWj3MuZ4FizEEZ5MXWD/8KU7n6zyL7yELza7Hbyxj8r4m3Xjj/nXqTN54bWbT907G12wKmEWE6WYv70BTmp739Vzfwk2gaEdt8Dv3qvn36HpmKdOTLa8p7whmBRgfHGR8zSarZY3BqPk6A2hdDZLorAwpyFYPpKxqgYwPlv5hujeCoVNnMca8vMr0excw0+qhl+g6LO+Zr+f6yRivAcv7Z8O0u1vZtMHy3nno5OvN67BX3sT22jP83lo+GLXer+unz7T+beyCuk4AaGL5A2n149R+LFMmbn3T8nmYHZNnMTPvdVZlmG7WlEGi6IiUncDkjFLOYSu3DqixDhz9TxvLgaRQiD7bNE36U+j4TA3mv1zcdOtjUnD4IKQusUhDMXwnGH7AhhIxc4z54c+2917nYOQs1VqTZtejvHGPnMX1k2eZb7S2bd5kfmA19N4ksl7j4muURPtoo985u0/wwephZkmhym2Qtx9+HOSAyiTRyag85LZVwIE8ZZnFNdRSe8/iAgo4yOu3WabhLWFTi9sVHVXB4YMwys824Jq8nKzPZ/G16b02p3EWUMAYxl5wX2ZDuTs5izcw/eaZau7slSuoXpvWlTXdUdcLAE28/bjga+wy2LYsjFsPLzBXT6vdFNq6ngWLx7Dp7Tji3t6keFoiupLAnoCLbe+h+sCmeWKuNpTl94fZP6PyRSY6oqHGdO4lFilOfqPGQKSil72sLHPHC0PvXcDMvK9JL25K01TT/HqMgeThArZt3mTMHrieWZGb+DrDsN5ZUy2+USYvNy5vSGeXtsadyCX+ztm9gQOghILDhp5nDVkxChd9Myc6HONDo9ffa64uzpDtpNT8NWTB2w8/xrD0c8V3lkWGhOhEij9mVSr2s9NMD6myvmTp4SWGh4uX+NDo+hcs0zebmmXZKzdT/Z5s+n7rrrpIAGjb2LNkzaqmNCebp1tXqmtqwwXW9AExpFC0huFGcBObkNq/rszPHQJrFB3EVDQFeanKTl+cUPkiEx3TUO5ONrSzMtWsDZ06izGpq6yfUhaXWNTAXM+syIN8/aTF95eKltZjmL6EJalNKaTXT5/JprdXUWC53oxtih9LuaHvuNrgd84ypUntBs6yNjBjFa/nGR8WGLNSLNuvb3vvdQ42c42KzmQod//D0KujsiOqkjVRxjRjw4Mlq/4QLK8hlSBy23uvW7QBNHy3KYPMkmL1+mfRkW0j7jZDr7GqfVMUb2OboibOMByDMe38bYu09Yw4w0PHFr6/tmUowrqAsfg1U27NeO1Ztumz/H7rprpGAJgBs17zs0otuHXTLL5MNtaced/Nq4uxmP41Y1tVE3epDO35Nj1m2u7jMHOmciY7DB8U6y6/RZfjATm+kFhokQZ6DOIOGwLBpArr1NCNFjWDojO4nuWvzTS01Vq2zfBU1DI1JiyMsCcft+r06foHlkLeweZr/ltaj3cEswIAyxTSybOYmXcQLL5TthWuYpVFOlbB4lflaXxH1Ra/cwEFTe+3sRMh6xu4r3ncNP2xApZ+bqqduZ7lpg7PjNOXHF7atG17vCOYFWDqtMZOepboGLzvJslYW2P+TjFdY/+IAGPKuKGTPLVrqOmBl2nZr6e/geUdz/UvWKbrGV6PP5luW2MjOhSrdu1hYYSFLYHXmjJXlEoKvmaV+XvoVl4f1RQoXv+CoaPEW83fMwCG30b731/bKHh7VdP2HyswtuezV27r+heMHVdZzmv+fuueNHrpjrFjKv6YqNsOsKCL9px25MgRRo4cqSwW3YxcB+JykuurScmaKOuAUWHbMuMg4HZu6oQ1ubaEGrkuREcVFhZm9XfXqAHscgzV6yxe0CWDPyGEEEIIIUT7kBpA0S4OHz7MqFGt6CZTdGnytFRcTnJ9ictFri2hRq4L0VFJDaDoELriOIBCCCGEEEJ0dBIACiGEEEIIIUQ3IQGgEEIIIYQQQnQTEgAKIYQQQgghRDchAaAQQgghhBBCdBMSAAohhBBCCCFENyEBoBBCCCGEEEJ0ExIAinYhw08KIYQQQghx5UkAKNqFjAMohBBCCCHElScBoBBCCCGEEEJ0ExIACiGEEEIIIUQ3IQGgEEIIIYQQQnQTEgAKIYQQQgghRDchAaAQQgghhBBCdBOaw4cPS3/84oobOXKkskh0Q0eOHFEWCSGEEEKINnTnnXda/a3Ry4BsQgghhBBCCNHl7N69m4ceesiqTFJAhRBCCCGEEKKbkABQCCGEEEIIIboJCQCFEEIIIYQQopuQAFAIIYQQQgghugkJAIUQQgghhBCim5AAUAghhBBCCCG6CQkAhRBCCCGEEKKbkABQCCGEEEIIIboJCQCFEEIIIYQQopuQAFAIIYQQQgghugkJAIUQQgghhBCim5AAUAghhBBCCCG6CQkAhRBCCCGEEKKbkABQCCGEEEIIIboJCQCFEEIIIYQQopuQAFAIIYQQQgghugkJAIUQQgghhBCim5AAUAghhBBCCCG6CQkAhRBCCCGEEKKbkABQCCGEEEIIIboJCQCFEEIIIYQQopuQAFAIIYQQQgghugkJAIUQQgghhBCim5AAUAghhBBCCCG6CQkAhRBCCCGEEKKbuMgAsADmaSAsSjnBYFlL04KgWDmhLbWwf5diTRDMS1CWGl3Adi/4PBjXvSxVOaFzWHYR+54RBRnKwjbQVustTmj9e7hMA2Fqr1Yuf6Us0zRzfbehjKjWfU7saav3UBi+08I0rTufa4Iu7X0TQgghRLu7yADQDx6eBySr3DSkQip2phXAYSAyHryV09pSLuQBAROUE66Q5OaDneIE4zkS9hXA28nKwjZwudbbGvMgS2/9ei0EbrtCQVeX0Z7vYRd0OBcIBD/lBCGEEEJ0RRcZAAKTjU+BNysimYwkw41upMq04hRDYDY90rq8zUUabq6TY5QTrozIeZAaa6dmpwCejDXMI8TkJPg8HvJiYU2BcqoQl98LesjKucwP5YQQQgjRUVx8AEggBJieHlvYnAyRUTB9HqQmWU/bkmgIDicb/86Isk6Hs7oBTjWmJZnSKi1SK01pmMUJ9lPplKlsrVnGtE2b14WmPEXBYuBJlVqdjDjImwcPqNRONns+LBn302q68Twpa5KsUrYsz6XyuIzT1hRYpCtanB+r89aKdE7LlEflPplYpUVabCsjCsL8DQ8LHlPZXovnSXmcxnVf6nqV52CL9eSL5h1jeGDyZpx1uTJt1Lw/dtKB1VKvM6Kajr9VnwEVyvNi834qz7fK58VqHUFQqJxBwZSWaHqZsglaeg/Ny6ocl+m4rdbVzHGppS1bpa628JmxojxHyv1QLGfaV7XP+LJUi+9HxXWi3F+zZr5Pbbav+B5UnhcrFuuzyfgQQgghRIekvxQfBur1oYF6fZGpYKNeH4pe/53y/3q9Xp+v19+FXv/MRsOf383T60PnmSbq9UXxivmNy1uVGX0YaCi/K76p7Bms1/eMYnqLyxi392G+8W/F/pp8GGi9DiuWyyiPX29dVhRvfe5aPB+K/VHuh2l+q/fDuMyH+Yr/G1mdI+N0q3NgZLMvxmWV58ZE+V6YlrecX/n+KM+H6vkznSd7x2jxt3Ld5r8vcr2mY1CeP6tlmqE8J0rfzbPeL+X8ynOovF7sfV4s36cWPwMq74tyv8zXiWkZ5fm/mHUoKK9tm/fGzntoZueza7lfrdkntWvc6rw385mxonJNmrZv77Op9l5ZfUZU3m+1a9RMZX4Tq/Orcu4+DGxa54eBtsdv9/tQCCGEEO0tKytLHxoaavW6hBpAYGq0ob3dFuNTalP652QMaZiRwNvGp8fK9M/JSZBlUUPoPcdQo6hMG12c31RjaGWedYrnA/FAtp2n7ybNLFNsbAcz1dQQxtjOUVmLCTAqUFmiIhIWB8JjFrUha2IhIF79eFp7PkymRkNeYtPxbkk0tK0MsHg/ilMgz3RMfpCsh3stGvpMn2e9DoDIjdbzALwXayi33O8H4tXTXE3tG1+zPBZjDZfVPIHwD4v3wjsGInPhPTvHC01tvxZvtEhXM75PptqzjDjDMSvX3Ww6cCvW+57xvbM8Nw/EN/2/Ldk7h69ZXI+To6zb2WYkGfbPKvXa2B7XKuW6mc+ADeN5sXrv/SB5o8W2W7qu7Kzj4WZSoO/Nsd7HyVHW3zMt8oOZgYrPrvFcPBxjf5+sjusCqH1mLKldk5OTDN8Pm1Ka9ndTinFiAWzKhcXxtp/xgGjrVE3L70fT50yZlWHJ7vepibH9tOV33L05KsdXAPP8gfgWPltCCCGE6GguLQA0BSmmGxdT+qeJ5Y2gMv0TFGlRxrSu9uIdaHuTuTn50jqSuXcjBCQb0riKE+DNXOMNqD0XcD6851gEe8YbxukxhhtJ0w2g2g2jZdrbY63pSMPYcU/qbOu0sNtilTMaFOxReZ8VCvYYzvVtFusL07SiYxzjzemb/tbLWR5HYTYQcoHtmVpar/EczJyjWO4ysXcO/SZYBCjGByymYG9zsmH/ps9rev+tHshcDON5sWmza0z/tnw4Yfe6sreOllimIc5WTmzZvfGGc2VKobR6+GJvn1SOqy0UZtt+DgF8Q5q+Hy0f6BSnGNLE7zV+xgto+oxf9mvQ+ODK9FlQpkGD4byGSfAnhBBCdFaXFgCanlznJUKxSm2D+cl9quHmxTI4NLXlGbXR2CNivuHmq91EGjrjsAwCUhW1JRifhr+gvHG0x1SLNNvY8YuiFs3SBZ8Pi1oD0w3jZOONZGqSyg2jMbh8LBs+N/VA2UwtjNLifNseLNU6jijMVhTYo9IjZpa+def2NZXlLGtPL5bd9RoDhstpc3JTsNbac2huZ5tqqFGd6mf4zJkCCeUDmQtV3ExNklkL11Wr1qGwJsgQ9JmvuY3KOVrBGCBvSrH9LFzMPl2K5mrkTCwf6GxJNL5vxs/45lRFbf5ldm+O4bxbfh9a1YrOM7wnebHNtDkUQgghREd1iQGgRRrok7EqtQ2mm7BYRVqRRQpWa274rwhj75xWQUAbBBWTkwypjXmB8IC9Y73I8+EbAnl7LG4YTTeSybBGccNoSkP7XCVoa5YfjLKo5W2Jb0gzKYVGVjVZF6IVNTSt2b6NltZrp8OjtmJK+Vy83PD31Gj181Owx7q7fr8JhmNdk2RRwxRpuN62GNdpU8t1AeymIVukCbZ0XXkbP/OFajVJalINNeWL81XSDi/QA8beVZcZO14yra81x2XSFu+5Wqo1ytpq4+fscIqxNt/4vpke6KjV5l9u3jFND6JszpXxgVnqbDu1hEIIIYToqC49ADTdTOUpavhMps8zTFO2rxuluLlaM/vy17K0hqlnQfNLpadMtV4Om9NiN+sXeT5M7cDetLhhNNUavBlrfcPoN8Fwg2u+V0ttZQqoxY205Y1ecYJ674CTlxtqMix7QF0TZJ3eaWqrZNk+EmNvhsqgp9CY4lpMU41q6mzr+TKimmoi1LafEWW7rxe0XrXpqbZpsGq9cLYkI8qwHsv2hWrnpzjB8H5ZjqFpqjV605j+aTJ9nuH9t3kgc6HUjrsA5s02rPtev1ZcV6aUwtlNAZDpWFSpBNvL7KSAWr2HKkzfTanKmtBWHBfGQNAycGt2v5th75p8M7cp6MdUoxvbVJuPxQOdN69E+ifG82DZ+28zQ/eY2qW+6a/o0VTlcyyEEEKIDuPSA0BTwIGdmwTTeIHKp9cvGFOITIEWGw03iu3FlEZplf5n7BTCnOZ0GVMBL+p8GGtYlTf6U6MN/1reMHrHGDulMQW2Sa1PrfOOMcxrmR57WyI8HKhy823sTKOlY3lBD4uzrYNtNhoCCFC0RfJvunk2jZtnGag/Bkw3rdgPkvMBi+0/lg0Pm87FRa7X1GmH3fNnbCfYbO1jsvXxmvbtc5UxK1/QQ6TF/LfFGmrFrGqITZ89RWqg6TOn9kDmQk1OMtzkm4/b2PbLVDvemuvq3hxDraSpzeeTGM61Kj/4h7FmyXTs0/XG69zEzntow9TZjErte0vHxYXud3PUrslkQ7aBZS2n6vtm5z2+XIpzDQ+jTMdsuu7sPUiw/FysKWhKX251ja8QQgghrjSNXq/XKwu7pWXGAESZgmmvXAjR8a0Jgk3RtgG2EEIIIUQ3sHv3bh566CGrsjaoAewiTOlXlrU3GVGX3o5KCNFOjO0Jm+15VwghhBCie5EA0GRyErwWYj00gSk9z176kxCi41pmbNMnn18hhBBCCDNJARVCCCGEEEKILkhSQIUQQgghhBCiG5MAUAghhBBCCCG6CQkAhRBCCCGEEKKbkABQCCGEEEIIIboJCQCFEEIIIYQQopuQAFAIIYQQQgghugkJAIUQQgghhBCim5AAUAghhBBCCCG6CQkAhRBCCCGEEKKb0Oj1er2yUAghhBBCCCFE57Z7925CQ0OtyqQGUAghhBBCCCG6CQkAhRBCCCGEEKKbkABQCCGEEEIIIbqJS2oDuLtmNy+Wvsg3Z77hXOM55WQhhLjsejv0Zka/GTzj9QyhLtY57kIIIYToGnbXwIul8M0ZONeonNox9XaAGf3gGS8IdVFOvTLU2gBedAC4u2Y3Nx68UQI/IUSH0NuhN9+P+V6CQCGEEKKL2V0DNx6E+OFwzwBw7aGco2OqaoCPTkHsMfh+TPsEgWoB4EWngL5Y+qIEf0KIDuNc4zleLH1RWSyEEEKITu7FUkPwt2BQ5wn+wLCvCwYZ9v3FUuXU9nPRAeA3Z75RFgkhRLuS7yUhhBCi6/nmjKHmr7O6Z4DhGDqKiw4ApfZPCNHRyPeSEEII0fWca+xcNX9Krj06VrvFiw4AhRBCCCGEEEJ0LhfdCYxmt0ZZJIQQ7U4felFfaW2qoh6+q4bdZyHvPJTUGRqCa4xPAYf2hDHOEOYCN7mCWyd+qimEaFl5eTlarZazZ89SW1urnCw6GCcnJ/r06YObmxsDBw5UThbtQLMb9J28j7f2Oga1TmAkABRCdCntGQD+uwKST8G3F5jnP6sfRHlAVCdu3yCEsFVeXs6vv/6Ks7MzLi4uODs74+DggEYj91AdlV6vp7GxkfPnz3P27Fl0Oh3Dhg2TQLCdtVfw1Jba6xgkABRCdHntEQC+eQLij0PxJT7Y93eCxz3h4UHKKUKIzubo0aNUV1fj4eFBr1696NGjBz169MDBQVrfdGR6vd4cBDY0NHDu3DlOnTpF3759GTFihHJ2cYW0V/DUltrrGCQAFEJ0eVcyAPyhGmKOwc6zyimX5sa+kDAcJvZRThFCdAZHjx5Fp9MxePBgHB0dcXR0NAd/Go1GagA7KNMtsSkIbGhooL6+nrq6Ok6cOIGzs7MEge2kvYKnttRex9DxA8DzQJ3F330t/i+EEK1wpQLA10/Ao8XK0rb1lo/UBgrR2ZSXl3P8+HGGDRuGk5MTPXv2lMCvE7KsCayrq+P8+fOUlJQwZMiQC04H3X2yhhezS/nm2BnO1XegriDbWG9HB2YM78czIV6EDmrbEc/bK3hqS+11DGoBYMfJQ6gGfgHyjK8S5QwdQQxp1+jRhypeIZWUBq5n+QA/5QLtIiagEn2onhxf5ZS2tJqcUD36a9KIUU4yn6dK0oYop7VSr4UkjclhvZdywiVobp29VrBngh59aCkbPZQTAZ42HtM59gy/DO9zr3j2hOjRh+Swup9youhoHj92+YM/gD8XwbNtOHCs7nAKsRFBuPc03IhqNL3xmhhFwtcF6JQzdwfVqcz30qCZtJICgMMJBGk0aO5NVc55QQpeDUKjCSLhsHLKlZBKVBscQ+sZthf0aoFyQrf166+/4uHhgZOTE05OTlY1f6Lz0Gg0ODg40KNHD3r27EmvXr3w8PDg119/Vc7arN0na7hxw0H+W6jt0sEfwLn6Rv5bqOXGDQfZfbJGOfmKeb7UEGxNzTO8ni81tNHfWqWcs/vqGAFgtTHoM+kLBBj/X2qsGexQdOSeTia5IpnkynSy68HTZQ5P+2aSNuQyBAfdkdscIvsGEthLOeESNLfO84tYf1YHeBIx8GnlVBg6m/AeQGM2649dhhudXm44Azi4495TOVF0JI//amjvd6FC877Hu/yosrhFL5TAsjZ4IFb2yVy8Rs8lIdePhe+nkVOaQ9qa5URUJxM7L4HseuUSarazqLeGqA3K8s5KR2U5oNV20gC4jMQICb46kvLycpydnenbt69VzZ/ovDQaDT169MDR0ZE+ffrg7OxMeXm5cja7Xswu7fKBn9K5+kZezG7Dp5cX6Dnjb+bWKsPruRK4v9A6IOzuwWD7B4DNBX9HjQHg4Y4WBOoorYoiqjCKqPxpTNjnzuyKXHQaTyKGrideLcAQF8Svtx9uysJL1NI6XypPpwxw7jOXeKspfqzoPwlnoKwqkZesprWRM/MJOjib2blezK1QThQdRcJxiC9Tlrbs5oR7IOFRgv75EDdvSLjgQPDFUnj7pLL0AhxLJGpeClrfGDILNrL8nggCPQOJuCeGpNxznCtewSRH5UIqCjPJ7JyRkrq+c1hfp0ef+zSBymmdwh62b1GWtY+QUfLwE0Cr1eLq6oqjo6MEf12IKQjs2bMnrq6uaLVa5Sx2fXPsAruF7iI66nGbAkJTMPjvCii8xA7cOqP2DQCbC/5M0zEGfx0uCLSWWriIlPOAQwhzhkUYS/2Y55NJqUXaaOVVG4nvb5gaPaoUfaie0pHzzPOvCDSlGZrWPI+N4/XoQ3NY3cuU3llKms9G8kNMKaj5bGy25rH5/QDAZSFJgaVUTmhaZ9rwSIsZIlkRWMk54/TKoHDcLaZeqJDBSewJNqSq6kP1nAtOM+/PisBz5HsYjifQwzDdnM7q8jTrr7JY7uockgY1HXuI10byTcc54RyVQUks7NXCOk0qEsisBTQhRHhbnM9eTxPhAlBA+olEAPwGrCAz+FzT+bTYf3N6bNB64scY3mP91WksbGb/IIa0gI1sDMxhtXnDITw9ModK0/s84Rylgab5LbYTmMSKwKZzUhm4Ast3TrSNLVUQe0xZ2iQ073umZX5i87o54R5K83K5+eabCQgIoPSrT7j6wzib+aZlftJsYPjnIth1kRk1ue++RDoQ+fJyJjkrpzrjbNHeWrsjgbmjextSRHv7M/dfuYbasW9jcR8dSzaQfKshhdSmJlC7nZX3TjCnmPYeHUWy6ZwdTiBI05v5/1zZtH7vuSQeUKwDAC3bX52Lf2/Teuaycr8p8jSkHIY/sZL5IYb1eN2RTNmBROZ6G1NbrdarZfu/opjgbpzW25+oT0xRvDFdMjjBkAJqR9m/wq2Pt952OUPapz9x+5uWy103nwnGY/Cak0iuuZa1meNr7XkqXMm03rNJBHKf8EejTMMsTydhjpfxmCcQu8XihvVYCvMnuhum9XRnwmOpaI37ZjiOKFZ+EoVXTw2a3ovY3uwyfvj5+uE32rB82efzLc71BOZ/bvvEpOzzWKaZjq2nO9OWbcf2dtr4Pr+YSKxpu609ji2L6G11PgpICNag0USRanoPNkSh0WiY+0nbPtE4e/YsLi4u9OjRA40Ef12KxhgEuri4cPZs63v+6m61fyad4bi3VhlrBg92v0Cw/QLAloI/gFGA6Wa3wweB6STWGH5s/JwNAV2k70YSB03CU1NG9ulkUmvKcHaOJMY3jZhekFiVgxbw7D0bQ7ixkPDeAM4E9l1uWG2/uQT2BHSZvGQ+dk8iBkXQW5dKSnUZOgc/IoeuV9RaNWlpPwAWDo1jXm9nKs+mknw6mzL8iBiygqR+AH7EBCSx0MUN58Zc0itTKXD0w1OxndZbyHLPeYQ4VLLduD84RRDjnUQEkH0mhVSd4Ue57Kwh1TalCkOQNHo5c5ydKasx7KfWIZB5wzca283Fk+gViZ+DltzTyaSeLQWnEEKcm1unpXRWVhvew5D+yzGF8RFDIwy1AzWpxJ0B+q1m44iFTOqpI7cqhZSqXOgZYTiflqvrPYeY3pWkVyaTXJ7Mymb2z5YfMQHpLHcLxE2fS3plCum1Ojxd5hE/arV1gOcyj4W9SkmvTCW3AdxcFpJofqgg2spjLbT58zq4E+2HCYz4abPVa3BvJ66++mqKi4s5e/YsV199NYN7O9nM5/y/JALyMpWrtdLSPthTUFgABBKufrE1OZBAxKRYUtyiWb9rD2kvhJC+eALRG3RwYxy5788BYM6aUkpLS1n5W+vFtd8nsjI3kLjkPeTsWkFkeTJRt6+kKQTQkfhCCoEvZ7IndSEhx1KYf7tt8JX7agThT6Tg9sB69uxKY3lwOosmRpNqeigIbH8vBc+XM9mzag66dVF4BcbCU3ts16vNJHFVLoFPrWfPvj2smFVJ8rw5rGwmmFfyvC2KSUD69mxDwddJJAPsX0/qMYAy0r/OBd95RI0zLZXL+i2exH2/h42PhFD2+Xzm/tNwpC0fXyvO0/Bo1m8x1FwG/jWT0tJSMv9s8eDq6xRyf5vEnl0rmOOcTULEQkPwo00lKnguiYcjiE/fw57kKPjnbMKN+2aQzKLX3Fm5PZ/S4ngmNbtMIMsL8lk+DihLJGpOIrk3Lidt1x42vhaJW3WlxXqB+lyS3kqFW+JJ25fDxj/7kf5iBHF2ajK3L3sJ7Z/WX9hx3DiHaGfI/X674eHF4RQS9wOkkPq9cb3fpgBzmHtLC5+JC1RbW0vPnj0NQakEgF2K6T11dHSktrYbRQqdkK+TsqR5hbWGQPD+wu6TGto+AWBLwd8vxkCvV+cKAtMbjU8SNQAxxLgF4kwZqUVeTDgcxezccBJrAMcIor384Hg6uY2AUyALAYaGE6jRom0AZ+dJxAB+AwLxAwrOJVv9+BdUBOGVO5u5B8ONNY9+hKh2uNKK/QBWHvZCs8cd/4OziTu+nKRzWsCPEHdDDVi0qxvos1mZG8S0/NlM2JtErnJTrbaS2Xs1aH72J/xwHAllSWQ3AL1CmAck/hpFep3hXFbqDKm2cRXg5xtNhCNoqxOIOZHExsp4Yk5lo3MIJGJgBAwOwU8D1KUTeziK2Qf9cf8piPmn7a9TKb0klWw90GsSC/sBRLCwr+EcZVctogCI8ZxLoAPkVsayvGI96yuWs/xMGTiGM3eoxcr0uSTmBzEtP4qoXxOb3T8bNud8LtP2x5JaB87Oc4mxfK8b0on9yfC+BJWmGx4qOJvCV9EWXj0OP51TltqaPXs2iYmJF/Xy8lLrncjaD9Xw1qWkgloydXii0Zg7LNm+Ko5sJrHi8xXMCQsh4vGVxE/VkfxeCjpnNzzdDDfLzm6eeHp6YvzTzO2W1eTsSiLm9hACwxYSfQuwI5M9FvMEPrWa5beHEDJrBXF3Afv3KL5LtrNyWTZct4LUN+cQEhZBzKp4InTJrNxgUVtzSwzLZ4UQ8uflxI4FxsUR/2eV9bpFsjp3D0mPzyFkXAgL748EtpNpjOVaZfhcoq6Dsg3pFADpX6fArEgi2U7K12VQnU7KFvC8a65FKmkgcauWMycshMjX4pgH5O7LbfXxtXieHJ1xG2jMw3A3vh+WPWffs4LVf44gJGwhy58IBLLJLYSydQkka51ZmLKemKkhhNy+gpWPOJP7WiJNpySQ5R+tYE6YH54DnVu5jIVqwDOQyD8vJ/4eRXKtYyAx3+SQ9tpCIsYFErk4ikB0pGcpHwMYXcxxOEYw535n2LCR9Hoo+3o9uZ6RRI7Tkfj5diCbjet0cMtc5lyG3sYl9bPr0hg7hhEd25Yx8NxQw2uKa+sDwq1VTW0Eu7orfxW3FPxVGwO8U8a/O1EQGOFgvBvSAwTi1QNoLCDbHGgUkHDO8CPn5TQHeIn0czrQGIK35f1CcG7MJelMAfQIIsIDFvYOBArILk83rQQAXVPiEeea7fW+Nfth7CEzsJRzE/TkB6wnpo+xtZwGcPPDC6CuwBBstgG/QUnsCT6HPjSfNP8YJvVQzmFrjpPhBtmt79Mk+SYZXgNDcAbcHUPgRDLptYDTHDZOqCR/zEX0zGruDMaP8MHR4BFDuBPQuJ31xhqDwJ6GcxM4YLV5P+L7ewLOuFl+yTSWkmuZAn8h+6d6zhNJ12kBN7x6W80tLqN6Pbxqm8V2YSoK4cP7IW+rcsoFu5h9CQwOBHJJ/95i4VELySwtJfOvTTfolVqdoaMXUyqlxov5W4CCUlr1e6grIOWxaebUxtkfKWew5qza7rCSSh2wYxFepgDVaz7pQMExtb1wtlmP9d86CtZZpBzemmw5sZU8mTtvEuxPJf1YOikf6Ii8J4mF90D6hnS0WzaSiifRc0KUCxo4WkbKF3p8yuO5cJbLn9OWAjpWRpjeYw3h/9JBWYHVe3wxy+AZTVJKNIHZcUzz7m2bsmmk/WElUabUzdGxrX6YeCH7FHF7NM6kkLqjjPXJ2/G8fzkr7g1Et24j2YfTSSmDyLvmGDrfEuICSHDf8fk6wbNehteWACgINgy/8IGvISBsyXMlhiCwK6eEXtkAsKXg77zFdMvePztFEBhBtIvhZr5A1/objLgz2ehwI8g1nknOzqDLZFF5NgV4MsF9NeHOQF0u6y9rW9poNo5ZwTwXT3Tn00mpSDanS1rRN4Wdl8RjI5k+8wgxplAmV6QaakJbyZTC2fRKZGV5CpDI3H0TWFSeTm4d+PWdw9N+mXaGdbDP1BmMZ995rPYIx1O18xeLnmDNr5WsPGE1k0Lb7J+4st49CSdb1UOmHRWF8JQx0C8vhK+eV85h1rui5e4+C2rhI5Xa6+b43RVDBJD+RAyp5vtxZ9w8PfG0aMzr7uYMRLDikCHF0/z6fqExTb05ZSRG+jP3LZj37kb2FJSSdLtyntZwx90ZmLqCfMt9KC0l85GW90Kp7L3Z+N+xEm5PZOOufErXGB96XSDPWXMJJJ2UpxJJ1EUSdYsbkbfPgw1JLFyXAp7RzA1TLqWmbY/vQvV28wLcWJiqeI9PJtptO3why3jetpo9lXrOlaYRMyqbhIhYrAak+GERfjcuYnvgctan51C6/eI64Glxn26MZA461r8bQ8oOQ3Dud1s0gWWJxL+QSi6RRLVx+qclCRK6JnlfO7c/ehgCwi0Bhv83VzNo6jm0qwaBVy4AbCn4w6LWz8SivUdHDwIjfVcwp5dhmICUX9OBXEobjKmZ5ht8P2J6G37gS2tTDEUlmeTqwdMliqAekF29Es6sJ7cOPF1m4+cAZTUphvYmF6U1+zEJv55AbQpzf5nG3MKmdEkAzmmpBOjpR7SprFfvi39y6mpoP1ignUtQ3lyiCtMpbbYW0yDB2MbSU1NJXKGxF9bCKOJPrCTulCk0zWbl0WkE7XNntrYM8MSvFU97rFQksacO6BFOVB83LDt/AUg/XwY44066eR+iCuOIP5HAyhY76Wjl/mmNT9Z7+hmuKwCiiXB2A7SUtiIdUbSNZEUTJjU3J9xD6VefKIubgr/wP8LNz8LgUZD5b7tBYOlXn7Sql9DW7JOV4dGs/3IebtpkZgeGE/tWKtmFuaSvW8lL7zbVv0xavJwQ0olbsIL03Eoqc9NJeiKKmK+NUaOjoeo55b2XSPk629xxiEEpBbmApycTQvyo/H4Fid9aTm+tScS8HAJb4pi/Kp2c8kpyvk0iZl4Mqa3ved2stCAH8MIzJAS/qu2s+Mg6m6LVRs0hehykfpSMbuocIvoCU2czh1SSP9Lhef9c7NT/KbTh8TmCM5C7JoHkdekUqDy3U/K8K4ZoNy0rF8exPruUymN7WP9KFAvfzFbpiMWg1ctoU5k/cS5x67IpOFZAaTXg62n18EBXXIAW8AsMJ9C1gPXvJre6BtBSi/vkGEnUPVD2UTLpznOZHQaMimSObxnJH6XDLVGXJf1TCNHxTXE11AZuGWMIBO3ZWmXoIKYrBoFXJgBsTfB33ljrZ8mUDmp62t1hgkBnvFyNKYj+aewJrmSjRyDO+jLSS+YSex4ggZcqc9HhSaRPKXtGJbExMJNoF6A+ncRSU8CyksxzQE9PPMllz4kCINmQ6tfTE0+05FQ1BR8XrjX7oUWnB5wiWDFqPWlBpSx3tRgw4cxKtp8HHCYRE5zJ+lGZ5AfOa0WNgBsRQ89xLqTplT9qIdQb7lL8+q1go38aOeOXE6FIAdUZA0K/fjnkBO9hdX/g2EpS6ww9lu4JzmSj70YygyvZE5hpGJzdYyOloXoqr0pjvX8aK1w9rYIl1XWqSiahqsCQWuYA6NINnb+YphYnkd0Inv1XUBpk2FbO+Bz2BLZQm9fC/lk5P5/EM1rQhLAwMIc0//WkjYsnsifodOtJuIhx6MSFO1oL2ywfRCl4lx/l5oR7cKWB8PBw64mWwd99H8C/74cThyFmi90g8Oabb6Zux7dc/WFcs0HgptNQ2aAsbZ7bLUmUHlpPTKCWxMWzmeAXxLQ7YtnoGEHM+0lE+wKjYkjfvoLIkwlERQQRFBHNymMhzL3R2OXTb2NYPcsT3YY45s6JJj7LMuIIIfbdaDyPJTM3OIioz91Z/trFdUbk92g6mW9GUvlqFNOCg5j24ErKrplLxEX0PBXyRCLRwwtIviOIoHvX474snovcK+bca6irirhntqETrL5zmHsb0Fz6p4o2Oz7faOIfDYT9K4maF0XsulbkaPSNZPW+9cR4b2RR5ASCJs4m7ntPIiID7Q+T0+pl3AkJLGDlvAkETZxv6Ezo++VWNXzOt8cTf4Mz6U9NIOjGOLJvWW3oQOZCtWKfIm83vNNufzZ04gOBRN1j+OWS9E8hhK+TMRAMsF8bWFjbNYNAjV6vb0Xdiy3N7guoBjd16mISYAwCLZWqBIAewAhj8KhMFbUM/JSB4WUTQ9o18TbBCo1aynTpJB6PtaiJAsPwC0kkDJiEp3EZrS6VxGOzibXo+MPPN4d8j0A4n8y0/VGkAwxJo3J4BG6N24nLDjenH8YEVBLv6kZuhYagQkPZ6qv0RDtrST/mzrTjavO0vB+R3ntIGhSCmwZ0temsLNcRNTSSStM6+seTOSKGST0BvZbcU4kUuMYQ2SOd2J+mkWDcPwM75wnQVsXinpfLikBDr6LodRRUrySxMYrl/StJ3B3EfID+K9jju5AQR8P53X4ykvBj2w3DVfguZ46zG84aw7TcqkRiD8eS2mshSf5xRPb2xM04LbtiIXOLjB3o2Funml4r2HPVQkI0kH3CnwnF1jdWfgPiWT0smggn461GQxnZ2uXMLVxJAavJCY0msEFxbprdP9M5y206B4Tw9MgkYvsF4uZgSMEtO5fC8vwoVp7HOAyEYjum60aXiOYXw1q6G33oRX2lqfqwAv5o/JwpeZcfZfDTcwkPD+e+++5jw4YN6PV6nn/eGNg95QcevoaAL28rJEw1BIOT7jOUm/6++VkAHnjgAcaPH094eDgffvghOXl55D36DsUDR1hv2ChlJNxm945dCNEedu3axbhx4+jVq1fz6YIlabyXnI1aH2Dgw7TYO1pZo2xY19qcQO6YbtkLmbgc9Ho958+fZ//+/UycOFE5WZXm3d3KogsWc/M1xA/VkHswn6DvrK+a1XeEEu2mI/HdX4z3Dh2H/sFQZdFF0+w2tONrjX9XGH6/fZ3Atxfc1Nfwr70gz2Rqnv1eQJ8bamhTeCku5Bja0u7duwkNtd7wlQkAWxOw5SlSPjEGiSOMAeQExbTW1CoKIbqdtgwAHymCFXZ63bw54R7qTp1kwIAB3HfffWzfvt06APzqeUNNnzHA48P7DYGfKehLmGoojzH0f28KAAcOHMiHH35IeXk53uFT+eK+V02btPKUJ7w0TFkqhGhPFxoAcs08HrjEwC17bTxZAy59PaJl7RsA9gDOk/K//cy1SBBpuwBwABvv9iNcewz3r9omzai9AkCNyin3dYI/DoT7Wmj7d3+hIYBUc6lB4IUcQ1tSCwCvTAqoMuBTBoSmeZSqgTI705R9Jcj3nhCijR1sIb189uzZBAQE8M9//pO8PMsnUhiCvPA/NqV6hv8RxkxRDf5Mtm/fTkJCAtdddx0333yz1TSllvZNCCFEV9OLOTcFENNPWd4WXPFzUZZ1HYW1ho5d/PY137nLB76GQE/NcyX2l+tsrkwNoIky8LMMDCsAe01evIwvE2VtoVpKqRCiW2rLGsCrfoEcOx1r3JxwDzMmXUt4eDh5eXl8+OGHXHvttTz88MMMHWrx62FZExj+R7vB3y233EJdXR333XcfAQEBbNiwgZ9PnbVbA3hdH9g+VlkqhGhPbVsDmM3a+DSYHsvovHjSiozFPtOIvSNEPY20fwjzHphmeCaunG5aDoAS0t5LJt9vHmGnko3r7k/IvAeYZtqdn9YSv7kIn+mx3HGNaSWY9+u0ad+V21GksGavjScNy22b1o15vpLN75Fc4M+8iRUkbzYcaH/Vc2PY7+ymg7Lalv31HGdtfBqmU6hcd8nm90j+qekIYmNjzf+31L41gJBd0UiIR0902nLmrj1KqkoNoF+QHxvD3Ah0doDGRrQVFSxMK0J77Tg2+vdCd6KUoC9KKOg3hLTfDyeip47EvPPMHtMfT4tqIW3JpdcEdqQaQDUf+NrvBMZvn3qwN8XV0GbwYlzIMbSl9qsBNGmuJtDDTk1fLwn+hBDto6qVw5MEBATw6KOPsnPnTuLi4igpsUhRuPlZw2ugsd0f1sHf7t27iY6Opl+/frz00ksEBLTul6W1+yaE6NyKNsdzKCCW2NhYYueF0L8ojfc2l8DQaTwQO4+Q/oaAJjY2llhF8Nd/unG52FimkUb82myrdZ/+KZmsAcZlYy2CP4Br7mCaDxTtSrNKuirZnEURPoRZBH+Yth8byzSfItLi3yNNmanVktPZJO/yYJ5xPXaDv/7TzNuKnQ5p8WuxOqrT2STnjTafL35KJt4YSBuW8eH0TxvN+2cOGs3r9LFcW4dSmXeURG0jzm4DSYocopwMI0awcdIAAnvWkb6/lJeO6GDQIFZOHkLq5mKSz4Dz4MGsvtqFmMleRDg3sv3nw8z/+TgL951FC2hPHCdqSwHRe+z1C9zxNZfiaen+Qvvj/RUEq69na5X9FNHO5MoGgLQQBF5lbPPX1zjdw1hmogz+hgM9jf+vNtYiqr06rBjSrtGjv2q1ckK3t/oqPfrQHC7kzMQEVHa6c9kZ97k7uZD8iIEDB/LSSy/h4+PDrbfeyoYNG5omhv/R0P5v0n1Wwd+GDRt46KGH8Pb25rHHHmuavxUuZN+EEB3T6Z+SiY+Pb3q9Zx1sYaytMtfADZ1GmA+cPtV8zUz2D9mc9plmVXMXckMI/YuyrAMzn2kqgVaTkAAfOJ1PrnmZEnILTtP/mhsIMW2nfwizLdYRcsc8QvqfJj9HeSQt8WGaKYBV89MPZJ/2YZplTeI1NxDSv4iszVYH1TTP0ED8+xuO03wurhmND037N3T6A02Bs3F6x3Wa+ZtKSNeB23Av0q62rjmZN7Y/gT0gO/cQ0zJLiNuSS2IFuA1yZzmnidpeTm5DDyJCAogb2gNtSQlRWefhTBUpNcanivV1JB86RUpJ521nsGWMIY1ziqt6EGfpuRJDhzFqQeAHvsoSg+e7QCrolQ8AaSEI9DDW6pmCQRNl8AdwzLicKfg7aufV2QxJozJUj/6aNGIsitWCopiASvShenJ8aQoozX83MSxr/TLNY1qH5asywHLLdvjmWCxTSZrKwyjzsSi22bwYw7iEDYDaOlWtJtrVjdyzlk2gV5Njcx6NZa05VtO+qwVopmNXm2Z+HwznRO3cm/Yp4fQetM5z1c+daHeuKj3ZtuSWW24hJiaGVatWsXLlyqbaQFMHMEYPPfQQb731FjExMdxyyy1NK2ili9k3IUTHYq65M72aC4BarYRTp4GiNOvgUpku2hrX3EBI/9Nk/2CsYzMGYWHTh5q3098vULHPQxnQH04X5NoEs5eipPw0UESa5THFW6aDqjHsS8uyWWteZ5pyYsdy5jjTvjMGcmGjmGBxJ+/V0/BHyLhx6B8MRf9gKDEeQM8ehqFrjh4l6WQjOPXAjTrSDxw39JLexfg6GTpr2RJgqMkzDfxujykIVJriqr5cYa36/J1J+wSAtBAEKimDvyHGADHAWANomQLqZSy3fHU2x6exXgf0mEBTDf9qwp0BAgk3B1ExRLq4QUM6iYXAkEgm9NCibYDAPiqBSUM6sbs1aHZriK3SEuhhGZDlkmicpqnIxc013n5ghDEA8ggkt8KwTKLOjYjhiho745AEVMVabNNOoGglgWk/adD8FMT85h9ymsUEzCXQdB4wBWjRVuNPATDEDy/LY92twT3PehALTEHx8Aj742KZqAVvvtEqQ2BYbPNYOtoeEcQFxMDxVPY0uDGhfzPnWrQbL1OGwQUKCAhg6dKlbNiwwSYltKSkhAceeICamhpefPHFVqd8Kl3svgkhugeb4FItzbNFQwn06w9Fh8gGsvOKwGe0sc3dcSqaDb4ug/4hTamaFq/majFbUrL5PeKNbRoN65umnKXjOXqU2MM6dD2cCbHoEKa0rhFoJPtAAVFbLF6biwzDiY0ZxSJPB3Rnz6OlJ3PC/Ii0WG1XZRr4/QNf+zWCz5UY0kGVnh2qvsy/y5UlnUv7BYDYCQKVNXbK4K8nMMy4jNrQD67GcstXhxfeVCtlrBmaX56OFovAwDecQBTB3ZBIJvQAbU0qCcDqgRG4NexhuTZXPTCxkHB6D1rAy0kl8CjMJBdw6/OyotbOWLN1TRpfnktEs7tpLML5Z3MBL/ystpnKcosAy7BNN7x6W8yiqCE01aqtvsqi5s43B31oDmkWNZXKmsTAnm5QV2Acc281OcbgNFHRgUdM/wm4EUi0xbZsDEkjzhXSj8WS3uxg21pydRDhpahh9AgkV5drNad9CaTWaHFzibSq7RUdw5hLGCl64MCBDBgwgL1795pTQnfv3s2tt95KcXExI0eOpLz84n9BAtTaTAshRBvXwA2dHoYPRWStXUtWUX9CbjClYIYw2kdtO8YayP4DmmoGT5+65H0ZOrC/Ih21LWTzw0+nbTqF6QxSvztMXIn1TUryL6fJbXAgxN+LKC9n/NxdiRo3nOXj+hPIENJ+0x/PBh1JPxxieUkD9BvAiqnGKlJjswK3gQNYP9WHhYOsVt0l/NHDkB46xVU5xUCtl0/T8BFKhbW283Ym7RsAohIEWla1qgV/dcYgUa2msLNyhszdGjS7E8m1qhnCHBis7hMIuvW4a3PBOZzV5mBGy57TCeYaQm1NKgmFmeTiRsRAleDGyLAslNba1n4Zgk3Qnv0f6TYBp5b00mncetxyuRjS3AKhYQ+pljV2xxOsBohfPTACN3LJtBxY+/g03C1qJUFLernaSDaBTGC5sbYRAj0saxsNKaPaOlPQNZ8gi+DUUkKeu7nmT1ORC87RtjWdx6fhvtudaa2ofSwtX09ujwiizem0xprIs8o5LYLO4RPYc8wiMK4thR5etrWVot1NuMgusfPy8khIMLy/L730Evfddx+rVq1i2bJlxMTE8Oijj7Jjxw7zeH8XI7SPskQI0V2Z2gSasg1Cbgih/+lsNlq2jStJ4z2VNoYtMwZ6RUWc7u9PoEWcpLad7LXJZJ9uChSHDFAEbiVpvGfsofOCmNJRN1oeQwlp711EhzNmQ/Dob92mMnttB08BNTtPwlcFJGotegQ7dpTZ20+RXedE5Fgvll8zkAjXBnKP6wi82dDpS+6hIuYfPU9Cxgm214HfSG+SRgD7j5N0sgGcXJgz0oOYq7tgBGgM6LYEqNfqgXpq530qaaDYmbezaP8AEIsgcIRFAKgM/gKAgcZ5K4yDw+epdPJSomj/1xkCRV2mcfDO+WTqTEGfoWaIHl4EDkljrjOG9m2FmeQSSLivKf3TEHTFBMwl0BwMziexSmsOFM16RBBvDELiXd3QVsVaBEkWAYpHIOgScc+7lWkWAaephtEqyANWXxVPhDEwVAknwZhSGe0MuRVB6gOVDkkjztWN3Ap7gZfp2Ey1jZapsBepMJH0BnDreSmhl+FcB3rksNp0DFq182CZArqHCcPt1D6KDuWmi8gg2LBhAwkJCQQEBBATE8PAgQMJDw9n6dKlLF68mICAAHOHMQEBATz99NNkZmYqV9Oim+w8wWxfOlIf9ELTM5yVh5XTroBjKcwP6Y1Go0Hzp1SrSan3atBoorAuBShj5SQNGo07i36wnpL7tyD18mX+aDQaZn/SlGKg+2SuYbu9F5FebzU7HE4gSKMxTDe9evsz7bEUyozzFrwaZD1do6H36GnEfl6mWJnoSmw6gYmPJ17Zq2WzhjJtoo+5vV9y8g+GZYdO44HYafS3XH9yPv4TB3D8IoKlkBtC6A/4TFS0URw6jQfMPW0atpNW5MM0i1TTodMfYJrPabKTjfuxEWbPM6zvwgxl2gOxTOufTbJFG8B8vzAGnLiIgwLDOmcbelY17f+hAPUhINpTwlc/oXn3J6btU045zfy12WgsBoEvyClgQlI2mnd3o3l3N73X/MLsH8uN68gmKKPKMOOZEsI/2I1m9X6ijhrWtejznwzLrc7Gf/NJi+10Tv+usN/T55Yx6kGgvVpAtXk7cxrolR0HsLXUgj/Tjdh54JTxZQruAhQ9flqmRlnWLnY4MaRdE09EXSKaX+Y3/U06sT9NI8HUhq5Bi1uPUhJ3G4Kn1Vfpie6pRdvDDapicc/DsJxNuzPQVsXinpdgXMa4XsU8MQGVxLs2rd/aanJCo/GqSqfUNQIqLGvWjPvbI9fOsgarr9IT7awl/Zi94M60DcO+Yj5G4/765qD38Gpa3qL9oWFfDPsxoaZpefOamzlu2/Ov1Mx0q30ynQdAZ5zXYnrBQD3RzpbnSPE+++agdyu1s4/iQunbcBxAgIkHIMumRtd6HECA8vJyPvzwQ06dOmUey681TGMIBgQEMHv2bAYONOSaNDcO4FRXSG/d6q8wHSl39GbuukCW78vh6XHK6ZdTGYkzvJj/bQgLU5OIm+SHp1tTDm/qvRpmfzSPjfokmzYvZe9Nw+vBdJwfyeTcm5OMpbnE+QXxUiFwz0b0a0xLFZAQ7E/s/ghWl6YR7QmgI/nW3kQZO36dk3yO9XdZ5A8fTiBodCy5Y58mc8si/MpzWP/afBZ9UAC3JFH55TwqXw3C/4lcAv+aSfpiPypz15Pw4CISD0NkciUb72qxRbLoAFo9DmBnoxi3r7tqr3EAO6v2GgcQYGqeYcgGS88NNXQOY/J8qSHgU1LORzPz2hsuQs2FHkNbaf9xAFvLw1gbOEJlnL9exo5errIYH9CyFtDUg6jp1WGDPws9/QztvxRt+sxpoD3cLGoJjTVgPdya0j+NnY6YOmQxvAzt1y69bZmhhsvNNYJAq/RNe8GfoZ2gKa3SXvAXE1BpbOMXQ9o10QQ2pLNcpTMWNav7BILVviRQUNe6mrzVV1m0HzSdt7PzjUGobdvC1kkw1JTaTV9VULzPMU6KbxnRocwboCyxlZeXx9NPPw3GlM/WBn9YjCFYXl7OP//5T/Ly8pSz2LjLXVnSUTgzZ60evf5KB38Ae9j+LXBLLPGzAq2Cv5Z4zprDJEC3bmNTzcv+JJJN3zHrUptq9crSSd0PTJ3HbE9j2bFEVmwAv2dW87QnpLyZiGq9naM7np6eeI6LYOH7G1k+FtiQyHrLmd098fT0JHDqQlZvWE4gkPreevX1CXFFlJC2q8g89IMQHd3zpbbBHyq1e896qffy+e9y21pAZUBooradzqDjBoCml2Xwd16R0mm6MWtl5N1Raeu8iAvVG3qd1CVa1GIZ00CVgYWxkxZD+qeh0xFzT6BmxqDE1KbwEpg6jNFWJZoDPUPaJ9apo6F6cnwD8ephCDy/NKZ9ghsRw5vmqQyIMXTa0mMCkWONPWZapKfatMnDeh2GgNK6xnH+2aZUVWgapiHauWndOb6r8etp6P3UlOpqrkUc4ocXTe0dDUNjGI/ROdr+MBcmhUFomm03aNkG0PJ9NqTymoN+0eHM94C+KrXrJqaUz5iYGGJi1K7dlg0cOJCYmBiuu+46PvzwQzZs2MCpU6eUswHg2RMeuKCmGbnE+WnQuMey3VymI3mOBo1mLsnVxtTJie6G1MOe7kx4LBWtVWpiFCs/icKrpyHFcTtQ9vl8Jrib0hknMN+YqmhItQwiwZQCarlujQb3ifNJOWbaj1SiNBrCX0wk1jRP7wnEblEfgFi7I4G5o40pnpre+M9JYLsW43pmkwiwIYreGg2ae22TPUFH9r/mGo5Do8FrTiK59cDwSOaOA8pSSDfud+7aZAqIZMWqSNAlkvK9cQ1bUkgHJt0229CtOpD7bgLbmUTMg9FEPeAHO1aS1GIKrDPOfQEq0So6qzJzdsYZoErLOeU0Ia6Qks0byT7dH/+gztVJiui+1GrqTJTt9tTa9xXWQqFKEzK1mr7vOmkA2DFTQNWcN7b762vRTrDCmCpqmQKqrDEUnZ8yBVSVIY3UOkW1E/DNQe9Bsym04sK0dQooxkFfn1N0D31zwj3UnTK0kbjuuusYM2aM9QwX6eDBg3z11VcMHDiQ3gHBNimg8cMhprmHESrK/hWO1+JsFqafY8VUoCyRaV7zyfxzGude1hHlN5tk5hCfEkdEeSLRd6xE90o+OY/7UWBMTSRsIevfiiHc1wvP+iTD8rcsZ+OySHS71pPeN4r4ewKNqZaBxB/KIWZgqsW6lxNJKnFzYkkhmo3Fq4nsawjckvEjetVqFk7MZflvF5GincfGuiQiHS0O4kACEwJjyQ5byPq3FuJXsJLoO1aSHRZP/q4YvA4kEBEYy3ZTmqWzm0oKKHjeHk/SExFo10Qz91/Z+D2TQ/4LgebjjHi3lLQHKg3pn8FJnEuGua5RpP85jXOrwo2pnsbjGwXUp7PIdRorJ62mND0az2MrCfdeRJlxvWCRAjounvx9MfjV68j9KIrwP6WgNe4/phRQ43mnOpfEe8OZ/7mWkNfy2fOoX9O5EB3Wrl27uOqqq+jVqxcODh3zGbu4eI2NjZw/f55ffvlFUkBbob1SQP322dbgmaild6rN/4Gvbe2gWlrpHz3sDxivdCHH0JY6Twqoml7GwM/UC+hRi+BPAj5h6oxFbfzDDiwGyLWoWRUd0zIvGK2STl5vfP2wYweJH37YJq8fduzAbeBAw7oHmOqYDEJcLjz4A/C8fxFz0LHyA0OtWNm6RNLxI2ZBBGXrEkjWOrMwZT0xU0MIuX0FKx9xJve1RIuOKAJZ/tEK5oT54TnQIrWyGvAMJPLPy4m/xzYF27BumPf+emKmBhI4NYakVZGgTSThE4ukxntWsPrPEYSELWT5E4FANrmKBznbV8WRbd6PQEJuX0HiXz0hK46EH8B5bCB+WKRZqqaAziNxbQwRYSHMeS2OeUDB16kUAH63GcYNTf9kI2XG9M/Iu+bg3DeCOVNB90EK6bp0Nm4AxkUzZ5RxlV8nslIHcx6IMtQIDo9m0S1Q8OpK285g9sfir9Gg6dmboD+loLsmho1fxxj22yj3CUMHMxrXIOZ/riPk0Y2kPyLBX2fh5OREQ0Oz4weJTq6hoQEnJ5WqINFh+Kr8XjdHbX61mj21GkBl4NhZdJ4AEGObQNMA8FcBEyyCP09jmQSDXU+L6ZUGCXnutp21dHAJhUEEtbLto2g/Gg285m1d9lXMR6S9tOmyvr66xTqlNGG41Z+t13ceC//sDB8lklydy4rXtsN1MSwaB+e0pYCOlRFNvU+G/0sHZQVYVno6W9bGeUaTlBJNYHYc07x7203bNKw7kAnBTWXOfQ2dmZRq1ZMarbZjoVKrA0IIGdtU5ubuDuiorLScs5UcAwkaC5jSL0dFMscX2JLC8ncN6Z9RtzgDnsy+K8KQBvpyKimA322RxqBNR/IHyQCkzGtKTY3aAOhWsnKdIrdz7NNklpZSWlpKZZWec9nxRCrGlwr8ayalpaWUllZyru4ce16LxM3OOREdT58+faipqeEik6tEB6fX66mpqaFPHxmHpyOzN+C7r5Nt7R/GgeKV1AI7td63lTWCnUXnCgBN+qp07tJLpUwIIdrIzf3VfziulFeGG3r/vFgRC2LwI4Wkp1aSXAhzFkfjCfR28wLcWJhqCEzMr5OJNr1lWvK8bTV7KvWcK00jZlQ2CRGxNkMsGNadyx6Lrst11YZA0cutd1NhK7i7OQPZZB9oKtNWVgLOuF9MpzjV2WQeAAa5YdiTQObe5Qmkk/heAdwSxRzjA0XPW+YRgY6VL65Ehx/z7jDWdh5LZMXn4PzAeutzV5rEPFQ6gzHVTnp64mbvYaWxExhPTze7wbDouNzc3NBqtej1egkCuxjTe6rVanFza32vvL0dO+et9qVqz+P2dTIEgVNcmwLBP3oYeuxUc5+HbcCo1jbQcn0mz3XSprHt9+4IIUQn89xQePCCOmBpG0uHwOMXkfppZdwiYq6D1H+tpMB5IQtvN6RIet4VQ7SblpWL41ifXUrlsT2sfyWKhW9mY1unZ6RNZf7EucSty6bgWAGl1YCvp1UqI4Dn7THMc4PkP80lYUsuuVsSiFqQCm7RxNxlnd7akkkLlhNCLnH3LCIlK5fsdYuI/lsZhC0n5gbl3PakkrAsheysdBLuXUgqEPnAXHNnLiFzovFEh04HEbdEGDpgAfCczbyppv/PM3QYY+78xZnou+aYAzvDax5R9wA7klhv7vBGdAcDBw5Ep9NRVVUlAWAXo9frqaqqQqfTmYfraY0Zw/spi7qF9j7uKa6GAd8Lgg3t7pprp+fr1DSf6aVs/2dvvvZ8MHwpJAAUQogL8I4PPND63/5LtmQw/PNiUz+teDL3TxEA+D2+kAhT7VLfSFbvW0+M90YWRU4gaOJs4r73JCIyEPvPuN0JCSxg5bwJBE2cT4pbNOu/NwxZYMUtkqR964kelU5sRBBBEbGkj4pm/b7VRNqrAbNnbAzp2+OZo01k7sQgJtyRiPa2eDK/tW5D16xx0cypjmPCxGnEbnBmzps5rLccXy9sNnOdASKYd4tlgGpMAwU8759r6Aq/Pp2VrxaAWzRRN1rMahR5VzSwnYRVrR/SW3QNw4YNo6ysjIaGBgkCuwi9Xk9DQwNlZWUMGzZMOblZz4R4tWttWHvo7ejAMyGdNDLqJjpPL6BCCNEKl6MXUDXPlRjGGrqc/jbs/7d379FRlPna97+AhkOIHEWIShKIhIPiYEBUkIQgTgZQZtxDti/gEHXMg7MHYQ26X1ngQBRWfLcyC2QeZXAcECEPD852iwMMioRwVIaDinIIBNMJEkImxGA4SBzC+0dVdVdXVycdiJDQ12etXkrVXZXu6lNd/bvvu+D5uhXKRKQBKCws5Pz588TGxnLdddddWxeFDzNW+CsoKKB58+bExMQ4m9Rq9z/P8tJnx/nom+84969q5+prRsvrmvLgLTfwQr8uJN7Yyrn6slytGTTr09V6DG6zgF5yAGz1WSvOVbsP4hcRuRpaNm3J2X5nnYt/NH87BVO/gcPBruN2iW5vCX+4BYZf3R40InIZCgsLOXPmDNHR0URFRXknWZLGwRrzV1lZSXFxMZGRkZcU/qR+XK3wVJ+u1mNwC4CXXJN+8IYHnYtERK6qK/259FAbyOtjjAGIvORPU5+2zWBONHzZW+FPpLGLiYmhU6dOFBYWcuTIEcrKyvj++++5cOEC1dXV3oChW8O6Xbhwge+//56ysjKOHDlCYWEhnTp1UviTa8olVwB3n93N/Xn3qwooIg1Cy6Yt2ZKwhcRWV+HnNeC7C/BmGWSXw546FiHvbgXjOhgTzLRQgUDkmlNWVkZFRQVnzpyhqsplfnlpUCIiIoiMjKRt27Z1mvBFfjxXq3pWn67WY3CrAF5yAMQMgS8df4mPvvtIQVBEroqWTVvy4A0P8kKXF65a+HM6dB5yv4PdZ43/L66CympoAkQ1g5sjIKE5JLYyZirrrkvYiIiIBHW1wlN9ulqPod4DoIiIiIiIyI/paoWn+nS1HoNbAKyHUSsiIiIiIiLSGCgAioiIiIhIg9WyKVRecC5tPCovGI+hoWhAd0VERERERMTfgzfAO+XOpY3HO+XGY2goFABFRERERKTBeqELPPsNvP7PxlUJrLxg3OdnvzEeQ0OhSWBERERERKRB230WXjoOH30H56qdaxumlk2Nyt8LXYyZv68Gt0lgFABFRERERESuQW4BUF1ARUREREREwoQCoIiIiIiISJhQABQREREREQkTCoAiIiIiIiJhQgFQREREREQkTCgAioiIiIiIhInLCoBrV++myaIDrHWuAKCcuf9nN01Wf+Nc0YAUs2xsf8YtLXYs38aM/m7LrwTjPvX//TbnChERERERkctyWQGw0Tuaw98PpfKbX0U714iIiIiIiFxzwjoAbntzHjzzGwY5V4iIiIiIiFyDrngANLqN+m69t5bb1hrdRntvLbe1+5y5pcD+A7btzGV2fuud+3Wzjb+vTeBnQ2uu/m37fX/69zdvY5fh1yn06DLGWev6u3fb9Nu+/ziWHXW2CK546TjbtjNw7t1/37Yuq5tnuNwfs2upy35ERERERCQ8XNEAuHb1bkYWt2JNRiIXMxK5+PM2sL8gYJzggf0FLO9mtPm6Nzz7/m6abMW73ZroCzy7IZ8Ca4P9B2iy9Tyv/tzcb0YcTx4tqDEEFi99nXUjfsP4W51rfPJee5i/P7CLXbt2sWvXfFIPzeNhK1QdXca4X8wj7g/W+l3MZ7Jf6Nr2+/5Mzp/CB+b6Xf/zM/7+ixBD4NrJPMcr5r4/YEqPdUy2BdBtv+/P5LWpzPfuewq89rDx94fMZtcfUmHtZGZsNtoXL32OeYdSmb9rtiqeIiIiIiJhqh4C4FlG2ipvvlsBz1bampXm82wxjB3cixHWsk7x7B/cCoor/SeSib6J5b2N/43r0Zpe+G83olsrqDzNe6UYVcMvztKrd1emdrJ20J6pd7biwP4TQSaoKSZnXR6pD9QchRKe+YDZQ6x/DeI3zyTA2r+zzew+mjdivm09DHpqCglrXzcC3tFlvL42gSn/33i8NcZbx/ObEXnMezOEGtyI+Sz3jk2MZvzEVDj0d3K8+4bUP9jC3K3jWf6HVO/9Y8hs5o+Adb+bwbajy3jutTz/9iIiIiIiEnbqIQDaKnp+tzhejbI1K/uBA7RinBnsvDpeTy/Osny/Y7mlUwv6OZf5OcueSqNq6BdAt551NvTZ/DrzmMJvbOEtFNGxcUABBUeLKcg3qnT2Lpj9fzGPPKtxwUHyyGPeL/y7aU62JVJnF06rWucqricJ5HGwwNp3Kj9z3v+4niSwjr+b+xn0olk5/MU88AuzIiIiIiISjuohAIamoPy8c1G9GjvYGUATuZhhqzbabPt4HQmpKb7K3CVKeOYDb/dP3225rVuprYum/faiUYcb9KL/8lADWrHH2/m1FgUcPGT8X15+qNuIiIiIiMi16ooFQKMrp0ulr+wHDtCMuzo6loesFXdFQfbXIV5v8OgyXl97aZd+MIJXHHG3RhMXD3nrcvwnhbFzVOMuW8FB8kigZxxED/2Z+75tbQC2/X4y63pM4YP/mULC2slX6bqGIiIiIiLSUFyxAEineF6NhuyttgvHl+bTe+tZiO5oG79XV8Z4P4pPMM4eLvcfCJhcBqB449/JG/GzkMbC5b32um/GTHMcXYJ52YhBT00h4dA8nrOHqqPLGGdN1HLreH5jjcHztWDb72vp6mmxxhKCcWH6360Da9Iat30fXcY4e5vNM5hsjUG8dTyvPJNA3mvPhTYBjYiIiIiIXJOuXAAERoxKZE20bdKY909B7zgujrrF2bRuevfi4s/b8NlW+xhAWNMNxyQw23j9NZjyVCjxD1L/8DP+bhvfxzMf+CZmuXU8y3fNJ+61h21jAP/OzybGUWCGrEEv7uKDZwqYbB8DyHx+FsKFGBKe+Q38v9Z2k1k3Yr636yjmvuePWOfbt3n/dr04yLh8xO/WkfoHX3fU6F+9wpQeecwLdRZSERERERG55jS5ePHiRefCa5X3sgzZtpk5RURERERErkG7d+8mMTHRb1lYBUAREREREZFw4RYAr2gXUBEREREREbl6FABFRERERETChAKgiIiIiIhImFAAFBERERERCRMKgCIiIiIiImFCAVBERERERCRMKACKiIiIiIiECQVAERERERGRMKEAKCIiIiIiEiYUAEVERERERMKEAqCIiIiIiEiYaPKnP/3ponOhiIiIiIiING6JiYkkJib6LVMFUEREREREJEwoAIqIiIiIiIQJBUAREREREZEwoQAoIiIiIiISJhQARUREREREwoQCoIiIiIiISJhQABQREREREQkTYRkA3a6HISIiEu70/Xh16LiLNGzX2nu02UMPPTTLufBaNmrUKBISEoiOjiYqKgqPx+NsIiIiEnb0/Xh16LiLNGyN/T0aHR1NdHS037KwqgCOGjXK7wD06NGD5ORkvzYiIiLhRt+PV4eOu0jDdq2+R8MmADqfQMu18kSKiIhcCn0/Xh067iIN27X8Hq21C+iQtAx+OqALP3x+iBPOldb6PpHs3lfoXNVgBHsCLR06dGiUJV0REQlFX0aljyb57u5E7t5HTd9WQ9Iy+OmgO+hS9TmHSp1r6yApjYyf9vH+vb6j0hmdfDfdW+/G93Vp3S9jbEli9/r5Lq3L93K4fT8az695vB3H3P05+nGE23FvGBzvN79b7Z8NV455P3uE9h6+HHX5rAim76h0Rt93iy0n1Px5a7wHa1pXD5+/AAwhLeOnDOjyA58fckswNbuW3qOX3gU0Ipp70oY4lzYKycnJAQ/aTY8ePa6pwZ0iIuLUlp41fZfdMYpubZ0L60fbVhFAFWfLrSV9GZV+D9EU8+miRSxatIhFKzf7b/QjC6/vx76MSs+gZyvb8V50kIq2PUkf1Rdcn6MfR3gd9waoyv4aMG6fFreiZ0YGGTV9PoiLvnTtGEFFwWr2epftZXVBBdCWzkl+jYEhdG5LkHV9uaEVUPE1q790rruywuE9GloArKjw+5BsTA4dOhTy7fjx487NRUTkGlFVUUFV226MusO5BiMgJEZDRQVVzlX1YPPKRSxatMR3YnNHVzpGVFG8237idGU5vwNrujX678c7utIxAseJ6mZWLlrEktXGkoDn6EfiPLY13Rr9cW8k9q5ewqK8Cmjbk7SAYCJBJfUkmmIObnIs31RCBdD2JkegTupMWyqoqHBZZ71HT1zZH8LcON+HNd0a63u0yZ/+9KeLzoV2Q9LMX8x2w133dqTsE/8PxyFpGfTkoO2XS/NXzQirRQUHF63Eu3ZUOvd0LOPTglbck2D81FpV/ClLVrclLaMn1o+vxjLb12JSGhlme9f1IiIirszvpbMH+fRsN+M7aIkjeCWlkZEABz85Szfnd90do0i/Nxrv15rjew2c31FVFBefJToaX7ukNDISWlH8yRKKYtK5x/cl6VBFcU1/u8L+fWsYkpZBT9+XJ8Vno4n2+14W6zhS07mD7Tla/aXzXMZif36cbVxeF9KA2Kruzvd/0PXO5xgq8haxchNmF8OetPJ7Tbntwzz3jT7LwUUHuSH9HjqWfcoe7vJ9DlS5/M2z/u9hv/e563mwcX+8Tfz2abao5bPCuJ+2TzrvY3U3JC2Dbmed94Ogx8GbGU50Nj5vnfkg+qzfMv/H7PhsxPm56zwmLs+P1d7l2FzL3C5hEVoFEODL1ewphuh70wheIDee8I5ln3rL6gcr2tIzfRR+tcOIaO65qcRo80kxRN9DRkZPyDPL8XkVRETf5fuV1vuhbJXrP6Ws4z2NsiIpIiJXz97VX1MREU1Pv1/5h5CW0JaKPJeTd1tw8Ptey0h3fEe1pcL6Dlu0BzoG70u6d/USFn1STJV5guXtipZX4d/Q/NtnbW0O0tOvm5pxglTBQWsfu2v80+HryyLKqiAi+h4y7M9dUHtZvcT23Cz6lOIqe/c020m69/mDnhk1nSNJw7aXorIqiOhI1zvwDzG292jbhAzz/HMzB4uriOjY1XeOa1axfPsw9tO1YwRVxQe9ny8R0fdwF3vM185BKmoZahXwPrfOnb3bGGHHex696FOK8d9nwD6cnxVJadwTje1c+yAk1PB6vmMU3dpW8HVA+MPlWILV/bPixGazQmjvBmocIypK/MOfvcv2J2V0vNf5uVuHbGD/nA6j8BdM6AHQ/NJyDXRexgem/ZeAzScqHC8AjF/JrF81zA9lKg76fmXYVEIFEXSM6Wu8AePaUlW8x5b6jf7FEdE9g78wTdHR0SQnJ4d0C6W/r4iINGbGSVtb24lN31HdaFvl0o0JGNIrmoiqYvbYv9dWfkpxlf93lN93mHcMzOUZ0iuaCL/9wuYDxb5urOaYRb/g+uVqvg7xT4fX96NxfnKwAiCC6HszyKjDmK++o+4iOsJ27pLU0//fAJsOUlzVlm7BTkBN4XXcG7GknkQ7u2lvWsmnttC3t7CMKts5bt+YjkRUFNs+H3zdvcsKbZGj4qDtXNn4TKLVDe7n1kHe50vyKqBtZ/NzzOjObP8MKiqr8q0Psg/7Z0XfqFbAWb7znmtvZmUNFW3jsfoCm9PewjKqvOfyvu6fJZsANlNSAW3jzDzh7P55xyi6tXUc+y9X83VFBNG9htQ9G9jCX00VTUs4vEfrFACxvviI5q6aPuCS0owP1owMv9Ksu718d9a5zK4trSKsX+3MfYa0X0OXLl3o0aNHyDcREbm27V29x3eifsco7op2TmJgMSYlqCorcqwzvreMk0DjO6r+x62YEyK07en/3WfvDtq+FRHeE6q6C8fvR2Ocn3E7WGEc36AVA4u3MmLrrhbVyphUyP7cZLh1GQ0Ujse9Meob1QqqyihyjAndW3nWV9j4sogy249BXTtGUHFiNUVlVUS0Ms5T+8Z0JMJlPyEL9j4vP0uVYzKVvqPSva9Hv27mwfZhs3f111R4X9M1VP4AGELPaCg+UMPnnlV1N8PykJva+lX47AWivjEd/e9f+1ZE2H+oMW++7qChZ4OI6HvqFP4Ik/donQMg7GX1bqP0HDhQ1phly68k6+zScon8usl4b8F/mbAcOnSI3bt3OxcHKC4uJjc317lYRESuOdYvxXeRnhhYZfMxTjJqdMcNtHIuq0dVtq6nvpsxDsYIIZcu3L8fjUou3hN1d1b3YJfJYVxmk1xkm1QmmHA/7g2X2Q3RDGvGrLC1MSptER270veOrnSMMELM3sIyqtp2ZojV/TPgR6TQhfY+H0JaRoY5hs54HX5a7JvOKrR9GFVE48cRMwgG6/GX1Jm2tYZaezdQW/dPi7e335CA7p8GW3dV+81WdQ8lG1QVf8qnxVW0TQil67chHN6jlxAAfaXntglpdLYvt8rlzkGal6WCs1UuswWFqLKystYnsri4mNWrVzsXi4jItWrTSg5WRBARUVXDr9hGNyW/MT7gq86d/Y69X37HWaBVlOtp0mWwVxnd7a08C7TihhBPapz0/VibvoxK70lblx8I/KpAdaTj3kAl9STaNlOs+xCmwK6SxmuhFV3tXSK/LKKsqi2dR7l0/6wjoyuly2UT2rciwrxsSd9R3WhbwyREdf2s2LzSLOC4PH6r+6V7rwl/3m6gicb9869AWp+v3egYAVVnbQUjl+qmv7plA2MIW0Qt85j4hMN79NICIFY/6Fa0tf9wVn6WKiJo1d5aYPxydnnMsRTOqXmT0kLuu1/TE9nYn0AREbk0oUz7v/lAMVUR/sMehqTdY/zYeWCzd/yO38Rld4wi/bK/+9z/NneMIt36VX7TQYqrIohO9P1K33dUut9MgbUJl+9Hq2uc/TzCGNcX/AeAIWnmBCBus6m6HHsjMIZWZQiX495Y9B2VbnQf9JuPwuU5Tkrjnmj/CV2sCU2ioyNsFS6j+tU2Ovryun/iG6tnH7fs/YwxJyUKCHhm13Yvl8cS8FnhOK8eclNb1y6wxng9Z5gLwuoGGuFW4bNCdgQROEKy22M2J4Yx3sN1zwZGxb+meUz8Xevv0WYPPfTQLOdCu5g+iXS8vpJvPj/ECce6E4eq6XLHLUT9UMbufYVQeojqLncQH3e3OeXodXgWebgusR0/fPM5h0rhph4/4ZaoHyjbvY9C+9/A3IexhD6JHbm+8hs+P3QCCvexu6oLA36SzN3mVKaJHb/nYOFpYgoLvfupSVVVFadPn6aqqso7YPNaeAJFRKQ2N9HjJ7bvqprc1IOf3NqKs+Z3FqWH+LyqCz/p3cv7/dOxRQUHFy1nfamxyYlDnxPZ/W7ibjO/n26qZOc/Kul06/V8a33XxfYhseP1VFr7vakHP7k1ih9O7sZ7l5xtSg/x+e5IeiT/hEHWd9+tzTmRX0KTGwopLD3Boc8j6X53HPHm+k6VO9lZ2Ylbrv+29sdqCofvx5uaV/NNs06285NEbomq9Hse/Y7/TaMYelsUzZpFcYt17BMTSUzsTuTufRRygkOf7yayRzI/GWStu4XmJw5T0qwNhYXOM6ZA4XDcGxbzcyDC+Zxar4WlvOf3njnBoc9/oMtPetHrbuvcswUVeYtYvt7+/BbSobvxueB5z3due6L5LdxxaxQXTuzjw0NWe/fPopt6/IRbWp01z7UD2xTu201k90H0tF5rt0ZxofhT3vqffxg7KNxXy2dQ7Z8VQ2L7cN0tt3g/azq2qODgW/+D+Re8hiQn0678c1Z5H1NNTtDilju4JaoZFYXv+T7rLIUd6J7YkRZVJ9j3kX/OKNy3mx+6DOAnyb73bMfvD+I5E0NhYWEI2cCRJfyOgfU+rtm18h6Njo4OmKym1usAXmuioqK8AzbdUr2IiEg40vfj1aHjLo2G37UynSuvXY39PWoFaLuwC4AiIiIiIiLhwC0AXvoYQBEREREREWlUFABFRERERETChAKgiIiIiIhImFAAFBERERERCRMKgCIiIiIiImFCAVBERERERCRMKACKiIiIiIiECQVAERERERGRMKEAKCIiIiIiEiaaXLx48aJzoYiIiIiIiDRuu3fvJjEx0W+ZKoAiIiIiIiJhQgFQREREREQkTCgAioiIiIiIhAkFQBERERERkTChACgiIiIiIhImFABFRERERETChAKgiIiIiIhImFAAFBERERERCRMKgCIiIiIiImFCAVBERERERCRM/CgBMDMzE4/H41wsIiIiIiIiV1G9B8Dc3FxmzZrF22+/7VwlIiIiIiIiV1G9B8DHH38cgCVLlqgKKCIiIiIi0oDUawC0d/30eDyqAoqIiIiIiDQgTS5evHjRufBSeDwe4uLinIspKCggNjbWuVhERERERER+RLt37yYxMdFvWb1VAINV+6wuoSIiIiIiInJ11UsFMFj1z7J48WLS09OdiwPtP0CTrWf9lzWFzq1bMOPurvxHtyj/dVdTdQXvbTrOt7f14slbnCstZ/hkq4dxed9TcAH63d6dPfe1dTZy8Q3jFp0gm1asyejFCOdqCLGNiIiIiIiEqx+tAhgbG8vFixcpKCjwW75x40YuXrwYWviza9GCP957I/99b1umd74eTn/Pbz/OZ9z+M86WV8+xUv7j8FlyvnOu8Pn+Cw/37f+egubNmX7njbzarYWziYiIiIiIyBVTLwGw3l3fnBF3dOWRO7oze1RfDvRvDlST/cVx/CPm1VNyvIoS50KHnOLvARh71+3MHtiVlM4KgCIiIiIicvU0zADo0Da6Bb0AKn/gAEB1JZ/s2Mddi3fTZNFumvz5c4ZtLKbCbF+w9XOaLNrNrz8/wdz3jf9v8n4R32N23fz4K7q9ZW67eC/j9vzTWAdQmk/vRbtp+WERn2zdR5c/G+1a/p+D5JwFqOB///dndPn8PADZW431vbeWW3sAypn7f3Yz8qjxr4A2Z0/wv1fvpZ257yZvfc6/bT1ORbVtF05njcfS8s+7afLn3dz190qXMHyBkq8OMmyZdVw+467VBRz4wVxtPrYmfy+0PbZ9ZFvrRURERETkmtYoAiCn/mWEnRbN6AJU7C3kvi9/oN2NUfzx3rZMbX2RnMPH+bd/nPLb7K1d3/BqldGddMM9nWjBKd567wj/9vV5WrQ3t428QPauIkY6tv2+8J/cVwhP3tGWqTc05fvKMwz7qIjvaUHK7R2Yag7luzf+Rv773hv5Y3wr29ZtGDewI/9hDln0a1N9nGdXfsNvi3+gS4co/ti/DU9GXuS9/cXErf3GG2L9lTN31Tc8W3qBtje04tU72nBX5fd84mhV8o8DdNl+hpwmLZh+5438MbYZx0vK6b2qwL9aeayM+/IvMO6OG/nvpJt45Hr7ShERERERuVY1zABYXU3Jd5WUfFdJQeER/m3rGb4HenXrSD+g7U9u5+Kvf8KGUT34jz43M+PuSHoBOUXlfkGnRacbOZDWk/+4w+x+mX+c35YD0R3JGdaFf4vpxLOpnZnaCnIOnTCqi5bIKPb/P32YPbA7r6Z1YCxA6RlyaEGvhK6kmHkvrnNXHrH279WMzt1iGGEGQHubkl0nmVsFLWK6sP8XPfiPu+L5c1o001tBRXEZr35j240lv5QZlUDbtnyW1oupA+P5c9qNxn3yOs7sL89DsxYs/1lXfturHf92dxzLuzWD8lP80b7fJi3477S+vDqwK48kdEQdU0VEREREwsOPGgCTk5Odi0JzppL7Vhyiy4pDdPuwgvcuQL9uXdg+uL2x3t4F9M/7aPdxpRHefrjAOdtu4tq3xj7nZkHJ90ZXz+Iyupj777KimLlngbMX/LtUNm1KC+voNK2/w7Sn1Og6+sjNN/kWNr0JY3LQC3xSXOlbbrLud+cbW9PZudJSeoacC8CF7xn3V+uxHWJY/gXgAgX2yWpaNaefvWApIiIiIiJhof6SjeNagJd18XfvLKA3seffevDthET2PBBthrnvWfthPvd98T3HI1vxav8b+e87WgQPRnZmkOsc3Zb/vtfolum9DenIfc72DUy7Zs2ci3yaNTEqed5jZ7/dxIzLeDpEREREROTaUK8BMDc31/v/lxUAvbOA3kK/DlG09RujVsbyo9UQ2YactF5Mvasrj8Q1p529SRBxXVsQB5SchfvuMLplPnJHVx7p04URPW70qxb+WO7q1ByA946d8C2sPsH2CoBm3BsdeK3DuPbGNgf+ecY3RrDaMWNMhxsY0Qr4/gLcantsd9zMiJ5d6KWKn4iIiIhI2Ku3APj444/7BcBL7v5Zq+bEtTK6iT758RH+98Z99F59igOhPJJbbuaP0U2hooIuy/cxY0chcz/eR++/7KXLh9/4ZgINQZdI4w9m7/mKX//PPuYcveBs4qpz/xuZHgnfFx6n9/8c4n/vyefXK4uZcxbaRnfkWbeLyvdsy39cD5ws477V+WTvOMh9S/9Jtl+jG3n2rla05Qd++9fPGbnxCNlbDzJy+ee0XHaItXV5cCIiIiIick0KJTb5yc3N9d6WLFlCZmYmQ4cOZcmSJd42ycnJzJw502+7+nMjzw6O4t5m1XzydQW/PQpPPtCd5R2d7dxEMmJEPNt7tyDu+++Z80UZz3qqaNG5LWsHd6nTZCj9Bt7E1Cjg7HneKr/A/nL/WUSDanoTs39xC3+Mvp7jJyv57a5TvHWmCY/0jqZgxC3uVcimXfjjz9rzSAs4UHyKcfur6N0/jv+O9m/WtncPCh5owyMtLrD2cAXj9p9he7MW/DHpFkbU5cGJiIiIiMg1qcnFixcvOhcG4/F4iIuLcy72ExsbS0FB4BXqRERERERE5MrZvXs3iYmJfsvqXAGsSXJyMhs3bnQuFhERERERkQagXgJgeno6GzduZOPGjZc3+YuIiIiIiIj8aOrUBVREREREREQahx+9C6iIiIiIiIg0XAqAIiIiIiIiYUIBUEREREREJEwoAIqIiIiIiIQJBUAREREREZEwoQAoIiIiIiISJhQARUREREREwoQCoIiIiIiISJhQABQREREREQkTCoAiIiIiIiJhQgFQREREREQkTCgAioiIiIiIhIkmR44cuehcKCIiIiIiIo3bt99+S2Jiot+yJqdOnVIAFBERERERucYcPnw4IACqC6iIiIiIiEiYUAAUEREREREJEwqAIiIiIiIiYUIBUEREREREJEwoAIqIiIiIiIQJBUAREREREZEwoQAoIiIiIiISJhQARUREREREwoQCoIiIiIiISJhQABQREREREQkTTU6dOnXRuVBERERERMLHV1995Vx02W6//XbnIrnCDh8+TGJiot8yBUARERERkTD31Vdf+QW23+w4wfO3d6Br5HV+7ULl3F9jVVRURHZ2NsuXL6eoqIiuXbsCMG7cOAYPHszgwYOdmzQoCoAiIiIiIhLAHtiWF3zHb3acoGvkdaxJufWSQmBjD4Bbt25l5MiRzsUBunbtyrhx43j++eedqxoEtwCoMYAiIiIiIuL1mx0nACg68y9G5hxla+k5is78i6Iz/3I2vSa9/PLL3vAXGxvLrFmz2LhxIxcvXqSgoIDFixeTnp5OcnIyRUVFZGVl8fLLLzt302CpAigiIiIiEuasit3InG/YWnrOudqra+R13N+pVa3dQxtrBXDkyJFs3boVgFmzZjFz5kxnEz+ZmZnMmjULzGrgl19+6WxyVblVABUARUREREQagpPF3L3+DMR35h/9o/xWfZRzmDGlvn8nuLQhv4g2u877/h0Zyd6Hoomxtwniq6++oqJTd0bmfONc5coKgoM6tWRc3A3e5VaV8LuCg40uAL788stkZWURGxvL4sWLSU5OdjZx5fF4GDp0KB6Ph3HjxvH66687m1w1lxEAK1nwtxJmRLbjVEpH58ofXeGuI/TNv553H+3Kg86VDU0Nb9ygzG3yaB70MTrf9P6aMnt4dyZ1cC4XERFLyYoMxi7K9y0YnkXOtIH2JrB9DikzNvj+7dbGcmwlGY8thIxsFj3a2bnWZgdzUqaxoaZ9uQptux1ZKUxbP4ysnOkEb2VXwsqnxrLwiPXveCa+s4i0mx2tQjlejVTox8x5rGDY7Bym32dv48L5OjL5bWu+fmxH2OT+fEg4KOPXK77lXZdwZ5wH2s4T3c43zfA3pv9t/Dke3/k7oYXAr776itVEk/XVSeeqkHSNvM4b/qbd3oFRFDeqAGgf87dx48ag4e/DDz8kNTWVhIQEDh486F3u8XiIi4sD4PXXX2fcuHG2ra4etwCoMYD1qHDXEdqsP0Oec0WNKlmw/Qx5ndpxKkj4A3gw5TZOPRp4e7cTENmShxX+RESCMsIMTHwnh5ycHHJyshi2fhopWTv82qTM2MCw2cHb+LV1PXl3KmHlU9MIjAK12D6HlJTattvBnJQUpq13Lq/JDuakjGUhE8nOMR5ndgYsfCyDlcd8rUI5Xo1TXY6ZGf5sxypn9jA2zEhhznZnW0sJK59KcbyO/LfNWFHit0V8RrZfu6zh+QHPh4SHj3K+5d1O7YxzO7uTxcwohTH9beeJHaKZ3QnyjldSCMb55IHz0KmdGf4AopjUqzmcOccHl5bp6qSxjw98+umnwez2GSz8AbzxxhsA5OXl4fF4vMutqiFmJbEhUwCsJx/lHKZvfjVj+ndmdqRzbXAf5Zi/zFxKZdX6QOhV+686IiLhawdvLconPuNFW1VlIE9mxMP6jzEijdUm21bdGcj0dyYSv36a3wn/jqwUxi7KZ9jsbCZ29y13U7Li9yxkIlkZ3jOyWllBND4jm6zhzrWmYyvJSJnGhu4TyZ49zLk2qJIVb7GBYWS9mYZVs+z86CIjdMxaiRFNQjlejVBdj9n2t1h4JJ6Js3zHivueZGJ32LDJ/SjsyBrLwiPDyMpxqRLeN52cnJxaqsUwcFoWw8jn4y3+QVGubYW7jhgVPtfzwSjefdSq6jlERnjPAR++77YgPfWuJ0GFgloVFRURGxtb65i/CRMmcO+997J06VJiY2P91iUnJ3snhrHGETZEdQ6AhbuO0GbFYfNWxEeO9R/lWOsO02bFERY4f3HIL7KtP8zduyodDWpwspi7bdv+2vnTq2Pfbf5WbPwqYm1n/dtk3FeX++hVyYK/BW6H9zhYj7+MvDORwd+cQXjf7CGU5d189MUZ8iIjecH6m87Hb91yyhxbioiEkWMxPOly4t25awxQSOExYPvHbCCeB+53nJzfPIQH/E74d1D49UT3E3yn7XOMKtqstDp8xpdQWBDDxHcC769dSeFhYjKyybEFudqVsHlDPgx/IKDb48CkYXDkYzYfC/F4NUJ1PWYlMU+Sk+PsitmZmG7A14VmWLY5tpK31kN8xpMBx/dS5Bc4zzzkmpVfRN98mD08SE+wDlGBnyFWEaCrFfiiiAkIeVZVsJX7fsVr+fLlAKSnpztXBWjXrh3Z2dk89thjzlXExsZ6q4fXTgAs/ZYxdDK7H3ZmduR5xtjC0Uc5hxlzJpK9VhfF4S15Z70tYOUX0WbXD8webnVh7Mxjx0tCDIHnGbMd3jX3vTe+Ke/ucu7b6PfsvX+coe+KIj7qEM0/hkeScOYMY6y/lV/EmNLaxs5FMem+SBICSudlvJRfTUJ8O/MN1ZFJD0XX7c11spgx+ZAQeZ4xzsAaCrfqX3xX/y6i/Zsb4wPvdPs1SEQkTNzc2eWEv4SVizdA9wcYcjOUFBUCMcQEjLtynvAPJO3NtNpP8I+tJGPGBobNdgaI2nRm4LTptW7T+b7pTK8hILor5PARiI8LOJWEmNuIJ5/DhaEdr8aorses880uba2QN2xI4DEqPEy+248IdbQja5pRpb1GxltKLU4Wc/eu84zpX9P5qI31Y//6czw2PFjhoYxfrzhMmxUlvNOlc5CqoNhlZ2cDEBPj8vloyszMJC4ujqFDhzJ06FDnaq+kpCQAtmzZ4lzVYNQtAHZqZxuQ6uhXfLKYGaVNmX2fLZB0iGZ2p2pmfFHm/RUiIb6T7QVu7CMv/9uASmIg/0pZTP82jKGadwoqg/d7fqgdYzjPynzjvrwb35S8/FIWnCzj17uc9yWIDlE8Fmk9BlP+Wd6lObNDneQlgDnuj2r69rICWzvGnDlD3xBDYED1L0AdHqOISJgpWfH7wO599WYHc8zJYWqtEjYSP+7xaixKWDlrIfndJ/KiS5A0fkRwY4w7TLFujnGU+YvG+talpDCNLHJqnZxGrg2+eSDcg5wL68f+4S15Z32wXl4d+bOt0OLWY0/8FRUVgdmF082SJUtISkoK6PLpxmpj7bMhqlsAdGp3HQlU88W3wLf/Io9qZqz3737om7nyPF+cgbz8Ev/uifapap1dGF1f1Jbm3BkJed+d9+7bVwb3b/NukbGfmP7debdTNTPWG4NsQ5ul0wy6pWfNN089lNNPVvLOGWyzNGG8Wc0q5UvOrq1ObtU/P5Us+FtdHqOISPiwZrese3UuNDuyjHFmbiHBa/scv5N+Zyi4bMdWkmHf/1PW+L66+7GPV+NgzQbqP37Szugi62Yg03NyyMlxHzPqnAQmJ+ljUlICJ4uRa1D+t8w4Y/Swc547W+fLAcOdLB2i+Ud/+/mpG0cxRIKywpp9Uhe79PR0Nm3aRG5uLkCN4wRDCYlX2+UFwADNvV00/W620rOvi6b9ZvZ5dnZhDLVkfbKKvc5lrirJO2P+75mqkCptAMS3YgznmbGr0gxvl9mt8tt/kUdz0py/9nSIoC+wt6LmLrG1Vf8Kd5Ve+sQyIiLXMF+Y8R/DF3x8WwmFXwPdYlxP+gOYXQQ5spCxtgA2dlE+rJ/mO7E3JwTx3uq7u9/NaSyy7//NNDoTw23dg4wtM7sv3ubIMMGOV3ixhb+aKnNmN9rLnrzlvulkDYf8RW813gl3JDTO817z9m4n4zIQp8y5JT7KcR8mVFjxg+8f+UXu81qEfI4c3gYPHuxcFGDJkiVgBryaxgpa7e6//37nqgbj8gLgt/8ij6bc2c6qBtb0C4N/Ne7yGVW/hBuam9003fZta2MFozPNedfqblljhdGuIy/ENyXveCULvjhD3uVedqHddSTwA3lB3qR929ZQtcsvYkxN1T9rILG9K66IiNQcZu57wH3mxWOb+fgIDEsKetrvzxm8zFt2RrxxHT2XyVWunM4MGeY+k+eOTYHj+2o8XmEjxPCH8dw/ORzyF/1el3CQevXgnUYPMb/z1pPFjLHPRxHfjtmR1cxYb+/uaXYxraFoIAYrrG3atMm5CszKoFUdtMJfsGphYaER1QcNGuRc1WDULQCWnrL9smCMMaNTG2OMmXk9knd3+fcz/ijHKl9bXSm/9S9n5xfV0tXTYlbgTB/lfGsbh+e2b7MbpNXGfKMY11DpyJ/7O9vXLCauJQlnztTS9TI4Y8ZR89hYYyP93qRl/Hq9vR+42wykZvfTYG/kug4kFhEJE75LNwQLM8ZlDvIXjbVd8sEYy5c/PCvINo1P50efZBgbmGbrElqyIoNp6/3H99V+vK5BZrdZX9dL85qJoYQ/08Bp2Uzsns/CxwKvFWiMo/Rf5mr7HKbV42yicg3oEM0/Hm3HGHtXUedF4Ili0kO38W4n2+SCK0K/CLxlFMVsu/38Zd9GUezcdYNmVQCt6p3T22+/7f3/pKQkHn/8cb/1dlY30YZcAWxy6tSpi86FgSpZ8LcS3unSjseOm/2VMSaFcXbTLNx1hL751b4Fndrxbld4MN5sd7KYu/0ult6cd/u3gviOQcfUFe46Qt/jLXm3yznGePfdnHedF043ZwL1ijRf9ObyBL83ijlraalzLF4wxjEwKogu0/Q6/7YlMpK9D0Xxwd9KmHHGf9ZR57Hyv39l/HqFEWCtv2e1D3Z/rcfj5HzcIiJhZfscUmYEv6S6X8hxth2eFdg909nG0n0i2UHGh5WsyGBswZOB+3JzbCUZrheZtwcRqzLlbON4PK6c28Yz8R3b+L5gj89U+/4bKufj9hk2O4fpmI/bfM53ZNV0wfhaQmGQYxifke2rAAd9nhvzMRZpvEaOHMnWrVuZNWtWwBi/oUOHeoOddcF3twljMjMzmTVrFoMHD2bNmjXO1VfF4cOHSUxM9FsWYgAUERERERG5Nm3dupWRI0e6Bry4uDg8Hg/p6elMmDDBNfx5PB7i4uIAWLNmTUjjCq8EBcBgAqqSltquEygiIiIiIteCl19+maysLGJjY9m4cWPIM3p6PB6GDh2Kx+Nh2rRpPP/8884mV40CoIiIiIiIiIuioiKefvpptm7d6p3t09kd1Mnq9ok5lrChdP20KACKiIiIiIgEUVRURHZ2NllZWWCO+UtOTvZeCD42Npbc3FwKCwtZsmSJdzbQhhj+UAAUERERERGp3datW8nKymLr1q3OVX66du3KG2+80WDG/DkpAIqIiIiIiITIqghu2bKFoqIi7/Jx48YxePDgBhv8LAqAIiIiIiIiYcItANbtQvAiIiIiIiLSaCkAioiIiIiIhAkFQBERERERkTChACgiIiIiIhImFABFRERERETChAKgiIiIiIhImFAAFBERERERCRMKgCIiIiIiImFCAVBERERERCRMNKmurr7oXCgiIiIiIiKN2549e0hMTPRbpgqgiIiIiIhImFAAFBERERERCRMKgCIiIiIiImFCAVBERERERCRMKACKiIiIiIiECQVAERERERGRMKEAKCIiIiIiEiYUAEVERERERMKEAqCIiIiIiEiYUAAUEREREREJEwqAIiIiIiIiYaJJdXX1RedCEREREREJH5988olz0WW79957nYvkCtuzZw+JiYl+yxQARURERETC3CeffFKvga2+93e1eDwe3n77bd5++208Hg+xsbEATJgwgaSkJJKTk52bNChuAVBdQEVERERERGxyc3Np2rQp3bp1IzMzE4/HA2Yg9Hg8ZGZmkpKS4l3fmCgAioiIiIiImKxwBxAbG8usWbPYuHEjFy9epKCggMWLF5Oenk5ycrI3DDamEKguoCIiIiIiYa6+u2zW9/6ulJSUFHJzcwGYNWsWM2fOdDbxk5mZyaxZs8AMi19//bWzyVWlLqAiIiIiIteotWv20PRN223NMWcTqUFmZia5ubnExsaycePGWsMfwMyZMykoKCA2NhaPx8MTTzzhbNLgXIEAWM7cFeH2Aixn7pojFDgX16fSI4zfVu5cWrtL3U5EpJErXjqeAQMG+G4ztzmbwOYXam9jObqM8QMGMH5psXONwzZeqG1frkLbbtvMAQwY8AI1t7IrZtk422McMJ5lR51tQjxejVRdjpnR1ncL/nwbz1fw9S6vL+8ttPsiEpxxvj2quBWrn7qL6qfuovqpmxhbfCLMzsEvXW5urrcb5+LFi4NO7vLhhx/SpEkTevbs6V1mBUaAJUuWsGTJEtsWDc8VCIBhaH8pz1U6F9avtTtP8ZlzYQgudTsRkcaseOl4Ri+Aye/tZOfOnezcOY/UtVP8Qk3x0vEMmLqO1LnB2/i1fWQ+ec4VAYpZNm4K65yLa7P5BQYMqG07I3BMWetcXpNtvDBgNPOZzKqdxuNcNQnmP+IfAkM5Xo1TXY6ZEZSnrE1lnnmsdu6cR9yC0TWHvBD4XmM72blzFZN7rGOKQqBclnN8VgljB/VkhHfZzbzUuxkUVxLSSz7MWZW7WbNmBQ1/AG+88QYAeXl53olhMEPg4sWLAXjxxRe9yxsiBUAREbnGbeONBXkkTPovxt9qLRvE05MSYO0686TbarOKl4b42rz03mQS1k7hhc3WMqMiNHpBHqlzVzG5h2+5m+Kl/8l8JjNvUoJzVVBWEE2YtIp5vjM5f0eXMX7AFNb1mMyquanOtUEVL32DdaQyb/l4os1l0b9axrwRecx/fhlGrAnleDVCdT1mR3NYdyiBye+9xCDvwkG8NDeVvAVv1ONxiGb8y5NJYB3rbK8zkbq5mbHRkL3X3gOtnPeOXoDoKFsolGCsSzzU1u1zwoQJ3HvvvSxdutR7SQhLcnKyd2IYaxxhQxRiADTKyn22ldv6Fn/B3FJzdekR+tSxv7F/H2XbvkwF277w68M8fr99rdmt1Lv+oP8vG/sP+m3bJ6Quj77H6Pe3VwR25XT2r/bt37xf285C5Sm6Bzy2Wu43xxhv26/b37aO9ahiOLDf42tnPQeObYz7+gVz84JsZ2srInJNOhrH0zt3suxXVuQxRMfGAQUUHAU2r2MdCaQO9W/DrSmk9oB1G6zT/W0U5E9m3s6dtqAYxOYXjCray+OJc64LqpiCI3FMfi/w/toVF+QRN2kVO21BrnbF5HyYByNSbYHGMGhYKhxaR87REI9XI1TnY1aQV0OFN8TjYHX5HGeF65oVeEJpJeJuxMi7qO77g3n+uYemb3r4rO9dVI+82dlUHKwum+np6c5VAdq1a0d2djaPPfaYcxWxsbHe6uGmTZucqxuMEAOg4cB+D8+1jTX7Fd/J1E5mIFl1in6DrP7Gd7Gamvsbr12zh1GVbThi9VEe3Zq/rPIFpYJtX9D9aGvf+kGtyN7mW792jYfnsG0/CEZZf2//QZpuO88ro637E8sTRz0hhkDjMY7iVl/f6cpTdLc9lrVrHP2rR7eB/R7z8bZn6qN3caR3M4iy7p95nChn7goPz0Xd5D1O1YNglDcEljN3xQmyo33rj9x6mlHO+92pO/ueiuWVKOjV23wuHu1OXKfu7Bvdhl6Vp3zb7D/IqOJmvDL6TqYmBNnOf+8iIteeW6NdTviLWfanddAjlZRbodhTAMQR5614WaKJiwfyC8wT+EGMXz4+IEAFOLqM8VPXkTp3ma2KFopoBmW+VOs20UNe4qUaAqK7AvIOQUJ3l0/+uAQSyCOvILTj1RjV+ZgNSSWVPOb/2V7r28YLU9cFea04bH7B16W4xtBZzLLn55PXYzL/VZf7J+Kwds0emm7D7xz1s22hFWbC3dKlSwGIiYlxrvLKzMwkLi6OoUOHMnToUOdqr6SkJLiWAiDRN7FvUHu/RWt3nuJA9E0s6+1bNmJAG3oVlwVU9cAIjM8VN+OVFFv46NSdV6Iv8NxO4wUaN+hO/3DSO4qxXOAvh8uBcg5UAlEtbOt7mr9ulDN371l69b7VDF0YoaxvKw7sLw2t/7PfYzT7Tld+b1TKSo/wXLGjf3Wn7uwb1Kr2/tX7S3mushWr7b/C9O7EK1FneW5bubfvdq+2Lb2r4wbdGXC8a9SpO6t7N+PA/qPMLT3G+G3OYyEiIlhdMw8lMPnlmk7ML9U2XnhkPvh1J23cftzj1VD5ugD7Jmsxx2W6VFH92MKf22tg3VT7BDCjWffTOlQmRdx4f/R3O0cNck4uXtZYvmBj/5YsWUJSUlJAl083Vhv7+MCGpm4BMIAZxopP+HWJbLrqFAecTS1lP3CACzy3yr8b5aiAXg/27pAnyPYuNwKd92/6/aphhChvF0frtu2src1lKPuBA7RirC3sAtDxenpxlmy/bqr+Cr49D5xllP1+vemxTRZjhE3rvodasXSKG3Qnq6Mv8Nwqo5pYpwApIhIGjAlO8i6hOheabTONcWY1VnOcs0HW9+Qq5gyl3v2H2AXRzY99vBq0W8ezzDtZy05zTGYq8zKDx7+8BaNrDH8ETAKzk//iPxkwYIDfWFORumtOL+eP/h2vpxcX+KzMsVz8WGEtWGhLT09n06ZN3nF9NY0TDCUkXm2XGQAN3i6Ffjer66Mb+xS1tptZHTPG4J3gM+9+b2KsffPePX3LzSBoD0xjbd1RfTf7rEiXxghxl8HbLdT/ZoW0uEF3GsusbqUBYx9DYYZy8FUuRUQE/MKM/8l58PFtxRTkA/FxoVVnji7jjbXAofmMtgWw0QvywKwkjV9aDENe8gsAO2sIFJfEEVyM6lIcCT0g74jLN0NBHnkkkODoHRrseIWj4qXjmbIWUufaJ4UJlDBpFasmJbBuqvvlNdxE/+q/mNwD1v3p0oO6CJzngLPSV/YDB2hGv46O5eInWOXPzhonGBsbW+NYQatdKPu8Wi4zALanVxQcOPpt6EGj1mrZMV7Yf4FevWNDqF7dzLKn7mJ1tHUfWtIvCrILfpy+znG3tXa/7yG8ueLaNYfK07znfGO6sY3zq+tjKdh21Ohq6jJ+UUQknNUYZszxXus2Ok6/j+aw7hCkDqvplN/GGbzM26pJCTBiHjtdJle5cqJJ+an7TJ7bNgSO76vxeIWbo8v4zwV5MGJeSMfCO7PqI7q0g1whvTvxStQFnltln2DQGA5EVGseCVqU8eeprCK3uPKybp7KKuduG7zaxu15PB5vddAKf8GqhYWFhQAMGRLCh8VVcpkB0BzvZ594BHNimGAzTHbqzivRkL3NfwbMtWusapcR4g5UnLOts3cBtbcFOEZ2MfS6tR1xtu6hfpWz/QfrZwCs230vPUKfbWchuqN/xbPyB6MbbGm5cRysN2aO//S8c1dYk9vY/x8o/Za/VMLYOHNs44rAWTutY1RQah770iOM2n/BHKN4M8sGuRwLt+1ERK5xvks3BAszxmUO8haMtnXDM8by5YV40t8YRP/qaVJZxxRbl1CjsuU/vq/243UNMrvNBl7jz3wd9JjMqjpUagdlmtf3C6H7rTHGElL/l8YByqUyJiJcHW0fbmROLliHSf+Of7Wb5oVfXdbt+Fe7+eSTT5y7btCsABjsAu5vv/229/+TkpJ4/PHH/dbbWd1EG3IFsEl1dfVF58JAthksXaeSPcZ4v3F6zXhlUEd6dbyZEZ3cty3Y9gXd91/w/pvom1gdByN63+ydWdQaRzh20F2MLdjDc21j2TfoHGvXVDKq2DauL9pxvxzbQytWD4qC3jfX0A20hvt5tDVHbG8eYyZQbxOXaqX/8Rg76C7vJDmB297EK+1aMqLjOebuLOO5Yt8x8e3X2l8rVltdWfcftI1tbMXqQTBq29mA+2L9Pe99cG5XD11jRUQaNHNCjmD8Qo6z7Yh5gd0znW0sPSazKshEHsVLxzP6yNOB+3JzdBnjXS8yn8q8nVb3w2KWjRvN/EPONo7H48q5bQKT37ON7wv2+Ey177+hcj5un9S5O3kJ83H7PefbeGHAFNY5j5Ero23BpFW2Kq+1vfncBT22oexfRH5MKSkp5ObmMmvWrIAxfkOHDvUGO+uC724BLzMz03sh+ZycHOfqq2LPnj0kJib6LQsxAIqIiIiIiFybcnNzSUlJcQ14cXFxeDwe0tPTmTBhgmv483g8xMUZ5aKcnBzXNleDAmBAZdBiXisvxP7RIiIiIiJybcnMzCQzM5PY2Fg2btwY8oyeHo+HoUOH4vF4mDlzZkAF8WpSABQREREREXHh8Xh44oknyM3N9c72WVuYs7p9Yo77ayhdPy0KgCIiIiIiIkF4PB7efvttMjMzwRzzl5yc7L0QfGxsLLm5uRQWFrJkyRK/i8g3tPCHAqCIiIiIiEjtcnNzefHFF72TvwQTGxvLX/7ylwYz5s9JAVBERERERCREVkVw06ZNftf+mzBhAklJSQ02+FkUAEVERERERMKEWwC87AvBi4iIiIiISOOgACgiIiIiIhImFABFRERERETChAKgiIiIiIhImFAAFBERERERCRMKgCIiIiIiImFCAVBERERERCRMKACKiIiIiIiECQVAERERERGRMNHk1KlTF50LRUREREREpHE7fPgwiYmJfstUARQREREREQkTCoAiIiIiIiJhQgFQREREREQkTCgAioiIiIiIhAkFQBERERERkTChACgiIiIiIhImFABFRERERETChAKgiIiIiIhImFAAFBERERERCRMKgCIiIiIiImFCAVBERERERCRMNDl16tRF50IREREREQkfX331lXPRZbv99tudi+QKO3z4MImJiX7LFABFRERERMLcV199Va+Brb73d7UUFRWRnZ3N8uXLKSoqomvXrgCMGzeOwYMHM3jwYOcmDYoCoIiIiIiIBKjvwFbf+7vStm7dysiRI52LA3Tt2pVx48bx/PPPO1c1CG4BUGMARURERERETC+//LI3/MXGxjJr1iw2btzIxYsXKSgoYPHixaSnp5OcnExRURFZWVm8/PLLzt00WKoAioiIiIiEufqu2NX3/q6UkSNHsnXrVgBmzZrFzJkznU38ZGZmMmvWLDCrgV9++aWzyVWlCqCIiIiISKNVxq9XHKZNTplzBQCFu47QZsVh7+3uXZXOJlKDl19+ma1btxIbG8vGjRtrDX8AM2fOpKCggNjYWIqKivjNb37jbNLghFwBLNx1hL751c7FJMR35h/9o3wL8otos+u8vYlPZCR7H4omxm9hGb9e8S3v0px3H+3Kg37rgJPF3L3+DHnO5QCd2nEqpaP/Mqu92zo/5t+136c633fDRzlFkOJy32txqduJiEjdlazIYOyifN+C4VnkTBtobwLb55AyY4Pv325tLMdWkvHYQsjIZtGjnZ1rbXYwJ2UaG2ral58SVj41loVHrH/HM/GdRaTd7N8q4L52n0j2m2nUdE8Mzv3DsNk5TL/P/Idzvw7xtT7ehmtHVgrT1tsWuD0n5vPqe6UMIytnOv6tzOfU++8gzxG4Hm/LJR3L7XOYw3Tf8yXhw36e6nKe+1HOYcaUNmX28O5M6uA7J8Z5rh5EfVfs6nt/Pzb7mL+NGzeSnJzsbALAhx9+SGpqKgkJCRw8eNC73OPxEBcXB8Drr7/OuHHjbFtdPfVQAWzK7OG3cepR89a/OXn5Ja6/Qozpb2tn3VwCVOGuU7wLwHlW2r6XnRLiOzv215nZZ76lzYrD/Nptu9Jv3ZebfH83UKj3HYw314xS58IQXOp2IiJSZ0b4g4nv5JCTk0NOThbD1k8jJWuHX5uUGRsYNjt4G7+2fiEhmBJWPmUPCrXZwZyUsSxkItk5xv3IzoCFj2Ww8pivVeB9zSGr20LGPrWSEvvuAphhxLb/nNnD2DAjhTnbzSb3Tffu0+82exgQzwP31zGwNAglrHwqhWnrh5HlfUwuz68t1HuP6/ANTEuZg6+VLdDX8BwF6G475ubxzF80lowVNT9j/kpYuTj0V5NcOwp3HaHNrvMkxHfm3U7Otb7zyjH9zfAH0CGaf/RvTl5+KQtOOtpLgKeffhrMbp/Bwh/AG2+8AUBeXh4ej8e7PDY2lsWLF4NZSWzI6hgAHeK7sje+KZSe5SPnupBU8sHxaujUjnc7wbsHiil0NgkqikkP3WZst6vI8febMqZT0+D7O1nMmHwY0+nyHr6IiDQGO3hrUT7xGS/aKjQDeTIjHtZ/bJ7YW22ybZWVgUx/ZyLx66f5wpFZRRq7KJ9hs7OZ2N233E3Jit+zkIlkZcQ7V7kqWfEWGxhGlq2S1/nRRWQNz2fhLCvclbB5g/O+wsBpWQw7spC3bPc1wPa3WHgknomzbJXC+55kYnfYsCkw6PqYwWP4k0GqXA1dIYePwLDZ9kqe8zUAO5YuJL/7RF60VeUG/moi8WzgY/O4ep8jW+Ww86NPMox8Pt5ShzB333SyhkP+hs21hHaRSvK+u57Zw28LWskrLDhHHs1Jc37UxLdiDNW8U6CuoLUpKioiNja21m6fEyZM4N5772Xp0qXExsb6rUtOTvZODGONI2yIrm4Cyv+WGWeaMvvOjjzYtTmcOccHdfyF4sE7I0ngPDP8+jhXQ9dOzOYMY1z6Pn/0xRnyOrXhhRuca+rmo5zDtFl/hjzOM8bsa/3rfHO5szJ5spi7zT7bwbYTEZEfwbEYnszJCehq17lrDFBI4TFg+8dscKtu3TyEB/zC0Q4Kv55IVo6ty2Qw2+cYVcdZae49SAIYwY7hDzi6G8LApGFw5GM2H8MbZoIpLAoeJ0piniQnx9lVsTMx3YCvC4MHESs4/sp5zxqLgTwwHDYstldInce7hJhf5ZDj2o02ntusJ/H+F8kJ6BIaw23dIb/A9Wfnmh05TKFZoUxxqeCWrMggJWUOO7bPISXF6Eq6YUYKKSkp/tXL7XOMZebNv7Jo7t+73l7RlIYvigdTuvoqey7yvquGyOtIcK6gOXdGQt53QYY4CQDLly8HID093bkqQLt27cjOzuaxxx5zriI2NtZbPbx2A2B+EX3zq0mIb3dJ49g+KjoPkS15uAMQ347ZkdXM+CKwO2mNOkTxWCTkHa90VPuimNSrOXn53/pXB/OLGFPanHdrHB8YmgdTjG6w0Jx3za6if443lvtXJitZsN03LjHYdiIi8iO4ubPLCb1Z0er+AENuhpKiQiCGmIDqljMcDSTtzbSAgBbg2EoyZmxg2Gxn2KqJEezi41ziYsxtxJPP4UK8YSZ/0Vt+J/E7soyupjFdAx+tpfPNLuuOreSt9RA/bIjLceIaqP4ZBk7LIefxw4z1hqCxHH48xzYGsDOdXR6fURU0XicEO4bb32LhERiWVOsrw2f7HKatt6qSnUmbNZH4gAquVZl+koH3TTe6rZpjNnNybPd9+xxSZhTaujhn88AGX/fSHVnObr8wzaVrs0i4ys7OBiAmxuXz15SZmUlcXBxDhw5l6NChztVeSUlJAGzZssW5qsGoYwCsZsZ638xCbXadZ0x/93L0u7ts7dxmKzL7Kid0iTJ/GY3i4S6X053URXw7ZkeeZ4z3b1ey4MD5WgNrrfc9BA+mtGMMxt8u3FXKjDP1EzpFROTylaz4fWBXyHqzgznmOLJaq4SXaOC0bCZ238A0W8XHmNxkGA/U6W+WsHJWYLdHP42++mfYkZVCygx8YwDfmUjhDEcVzctXMZtGVpCqoGUHc2ZsgOFZNT/fRxbawqfvvni3Cag2W5XpYTwZ7LkBb0D37+LcmbTHh5k/EpRQ+DXQLcbW7Xd64OQ3ImGsqKgIzC6cbpYsWUJSUlJAl083Vhtrnw1RHQOgNQlMO8ZgzIz5QpDKVcBEKo7wY/VVnm0LjzFxLV26c16OKCbdF0lC6SkWnMQbxOx/001t9z00Hfnz8EgSSr+lbz7MHq7ZPkVEGgJrNtC6VedCtyNrGhtqClQEdtdzDyE16Uzam84JWmxj3I6tJMO+f5euhb7ZKf3HHPq7Nqp/RrUtnonv2Lpu3pzGotnDYP1bLpO3+I5vFtNISQk2wYs5IUz3iWTXFqick8DkPMDHfs+NEdp898cKdk/WUnE2Ksf5i8b6v6a8M7la+512ia81aQwSbmgKZ/7lMmv+eb44Awk3NHeuEBsrrNkndbFLT09n06ZN5Obmgnnph2BCCYlXWx0DoMUMN2fcx9jVroyX8qvBNgauzQprXJxbd84anKzknTP2SqJDh2hmd6pmxvYjjMmvZkz/KxjEvrXeiNV88a1zpYiIXGm+8Oc/hs9vPKAfl+pJTczulM5qz9hF+d4T8IwVJYEzbU4bWPM4ssLD5NvHodmZ3U39KlA3p7HIvv+AgGcLfwHj2WyukeqfwaWLr1/XWndGtdVtghdb+As4vqEYyPTZw8De7fO+B3yTyRzbzMdHXMalBmGfEdZ3M59b7+vNnPk0YIygNHZWESVgRv38s7xLUx6Lq7n4Ee4GDx7sXBRgyZIlYAa8msYKWu3uv/9+56oG4xIDoBGs3o1vemlTy5ovRr9LSli3/s3hzBlecr6Ag/joizMBlUSnB1PaMeZMNXk1VCzrXxm/Nqfr3RvflHd3Han7cRIRkXoTLPyB48Tb7thmPq7L2C5n8DJv2RnxxjXnXCaj8enMkGH+s1JadmzyjVf0Z3bhdMxKWbMQw5+3a2Mjr/55uQR8e7A2q6b2GV/NRi6T7lxu+AvGmJk0f9FbzFm6kPyQjr3xw0HNs7haBjI9J0ezj16LOkQzuxP+55sni7l713kS4jvVOIGMXdGZf7G19BzLC77j5a/KWV7wHVtLz9X5VnTmX85dN2hWWNu0aZNzFZiVQas6aIW/YNXCwkLjF6VBgwY5VzUYlx4AgZj+nYyJW9Y7L8NQE2McnnfyF6f4dsyOhHeLaht3V8mCvx1mTCkhVPU68uearuVXB8YMn87H+wN5J41qpPUj4kc5xkXm3+0f5TtO252XpQjcTkRE6p/v0g0u4Q9sJ95jbQHAGMuXX9vYrnpkXE5gA9NsXTZLVmQY3RddxivuyBprVOjsXRtrZF5nsNbwZ13u4Bqp/t33JBO757PwMcf1/GbYgvXNaTw5HDbM8O/uaUyuYxuHd2wlGfUS/qy/P5En7dXo+x8gng1sWB/8hwdjptcSSo7h18XTL7xun+Pt7rkjyx5sd/BxjZP+SINkzSa/wjj3pdS4Frb9nPTBlNvYG49vvo46XATe8l3BQdqWHuHOM0WMopg7zxTRtvRInW/fFfgukN4YWBVAq3rn9Pbbb3v/Pykpiccff9xvvZ3VTbQhVwCbnDp16qJzoZvCXUfMsWy2C0xiviDXG1W4dx/tyoP5RbTZFWSq2chI/t7lHD/Lr2ZM/+AzXxp/y2zTztq/C3NWTT/m/elbw/4thbuO0Pd4S/ZawbCW+773oSg++FuJcekK73GoZMHfSphxxmiWEN+Wx45XGJO+PGoLptZxiow0/55zu7q9QUVEJETb59jGQwXyC4XOtsOzAifLcLax1BAISlZkMLbgycB9ubIqdNa/45n4TuB4xR1ZxsQv8RnZNVQV/VnbuLOFQvOC6Pluj78RC3j8Lo/PqhT72MOy87lxcH0N1LCNy9/Hup9fu+3Lcf/sf896zrwth5E1+wG4D8j6mGnra3ldi4S5kSNHsnXrVmbNmhUwxm/o0KHeYGdd8N1twpjMzExmzZrF4MGDWbNmjXP1VXH48GESExP9loUcAEVERETkx2YExo+HhR7sReTybd26lZEjR7oGvLi4ODweD+np6UyYMME1/Hk8HuLi4gBYs2ZNSOMKrwS3AHhZXUBFREREpB5tf4uFR2q79IOI1LfBgwczbdo0PB4Pjz/+uN8Yv4KCAi5evBgQDC0ej8d7bcBp06Y1mPAXjAKgiIiISINgTbzzQI3jM0XkxzF27FgGDx7sDXSZmZnOJgGsC8R7PB4GDx7M888/72zS4KgLqIiIiIiIiHlNwOzsbLKyssAc85ecnOy9EHxsbCy5ubkUFhayZMkSb6WwIY37s3PrAqoAKCIiIiIiYrN161aysrLYunWrc5Wfrl278sYbbzTYbp8KgCIiIiIiIiGyKoJbtmyhqKjIu3zcuHEMHjy4wQY/iwKgiIiIiIhImHALgJoERkREREREJEwoAIqIiIiIiIQJBUAREREREZEwoQAoIiIiIiISJhQARUREREREwoQCoIiIiIiISJhQABQREREREQkTCoAiIiIiIiJhQgFQREREREQkTDSprq6+6FwoIiIiIiIijduePXtITEz0W6YKoIiIiIiISJhQABQREREREQkTCoAiIiIiIiJhQgFQREREREQkTCgAioiIiIiIhAkFQBERERERkTChACgiIiIiIhImFABFRERERETChAKgiIiIiIhImFAAFBERERERCRMKgCIiIiIiImGiSXV19UXnQhERERERCR+ffPKJc9Flu/fee52L5Arbs2cPiYmJfssUAEVEREREwtwnn3xSr4Gtvvd3tXg8Ht5++23efvttPB4PsbGxAEyYMIGkpCSSk5OdmzQobgFQXUBFRERERERscnNzadq0Kd26dSMzMxOPxwNmIPR4PGRmZpKSkuJd35goAIqIiIiIiJiscAcQGxvLrFmz2LhxIxcvXqSgoIDFixeTnp5OcnKyNww2phCoLqAiIiIiImGuvrts1vf+rpSUlBRyc3MBmDVrFjNnznQ28ZOZmcmsWbPADItff/21s8lVpS6gIiIiIiKN0No1e2j6pu/WZ1u5s4mX0fYga50rpEaZmZnk5uYSGxvLxo0baw1/ADNnzqSgoIDY2Fg8Hg9PPPGEs0mDE3oA3H+Qpm9+wdxS36K1a/bQdMURCuztbNau2UPTNcf8lhVs+8Lvxevdfv9B/+VuN8e+rDfC+P1+i03lzF0Rwv2r45tj7Zq6tbdc6nYiIlI/ipeOZ8CAAb7bzG3OJrD5hdrbWI4uY/yAAYxfWuxc47CNF2rbl59ilo2z3YcB41l21NnG5b6OW0Zt98Tg3P8AXthsW+3cr+NW++NtuEJ6DQRV2/NorK/x+AQ9ti8QbK8imOeso4pbsfqpu6h+6i6qR7eB/R6XEHiM8W/uYVQNL0Nxl5ub6+3GuXjx4qCTu3z44Yc0adKEnj17epdZgRFgyZIlLFmyxLZFwxN6AAym8hTdHcEsmLVr9tB9f3Pfi/epWF7B3L53T3OZcTvSuxlge6E/dRfVI2/27az0CM+ZL+7sgtD+/mWz/c06udTtRESkXhQvHc/oBTD5vZ3s3LmTnTvnkbp2it/JfPHS8QyYuo7UucHb+LV9ZD55zhUBilk2bgrrnIuD2sYLA0Yzn8ms2mncj1WTYP4j/iEw8L7uZF78fEbXGgKLWTbOf/8756aybqotBA55ybtPv9vcVCCB1KHRjn02DqG8BoKr6/NYM/vztnPnKib3WMcUhUAJxjyPHDuoJyOsZZ2680o0HDj6ra/QUXqEPm+eIDuqDUcGtfJuLqGxKnezZs0KGv4A3njjDQDy8vK8E8NghsDFixcD8OKLL3qXN0SXHwCjWzG2+ITLLxBOx8guhl69O/levLRn6qOOYBeigsOnOUArVg9qBcVlfpVJERERn228sSCPhEn/xfhbrWWDeHpSAqxdZ550W21W8dIQX5uX3ptMwtopfhWybTMHMHpBHqlzVzG5h2+5m+Kl/8l8JjNvUoJzlavipW+wjlTmLR+PFbOif7WMeSPymP+8Fe6KyfnQeV9hUOY8Ug/N5w17Nc9p8xvMP5TA5Jd9+2fI00zuAes21BQ/iln2p3Uw4mnbMWxMQnkNBFfX57Fuohn/8mQSWMe6mp47CWPtWP3UXSzr7VwORLUgzvzfgrIf6Nc7lupHu3uXSeisSzzU1u1zwoQJ3HvvvSxdutR7SQhLcnKyd2IYaxxhQ3T5AbDyel4a3Qb2Hw0phB2oOOdcdAmO8cL+C0aY7B3FWC7wl8O1BdDLs3bNHpquOsUBzjLK7JI6fn+QbqilR+hjdlkNtp2IiFwhR+N4eudOlv3Kv3IVHRsHFFBwFNi8jnVu1a1bU0j1C0fbKMifzLydO/3Cl6vNLxgVp5fHh3gyZgQ7RqQyyLFm0LBUOLSOnKMABeQdcjSwKfAErwEWxz3Nzp3LHCEumrh4IL8gePXQCo6/dt6zRiKU10AwdX4ebawun7VWZg01PXcSxjq1D3ztWVXBOF8RJa53T5YNau/XTEJjddlMT093rgrQrl07srOzeeyxx5yriI2N9VYPN23a5FzdYFx+AMQoQ6/uDc+tqmmc282MjQaKT1x+CNpfSTbNeOK29sDNvNS7GQf2l9bwty/fiJF3UT2olV+31GW9jeWroyF7m/XYy5mbc4oD0TdRPfLmoNuJiMgVcmu0r9rlZVa0eqSScisUewqAOOICqlvOcDSI8cvHBwS0AEeXMX7qOlLnOsNWTYxgl9A94FQP4hJIII+8AoBBpI6AvAVv+FWuts00uijGxQY+Wkv0rS7rji7jjbWQ8NMUl+PENVD9C+014OqSnkfT5hd83XRtFd1AxSx7fj55PSbzX46AKhLAmjNj1WmeGK1zyvqydOlSAGJiYpyrvDIzM4mLi2Po0KEMHTrUudorKSkJwiIAAnGD7mR19FlG1TDpyoiR1tg+yN7mmAQmZOXM3XsWolrzSCdjSdxtrenFWbIvJ1RehhEjb2IsZxm15hgF247yXGUrVl9Ct1YREbkyipf+Z2BXyHqzjRcemQ+OLpr1aVCmNW7MN5HIlLUAqaTW6W+GED4ae/UviNpfA5fxPNrCn9u266baJ4AZzbqfrqolJIqYrDkzRrfmL6sCJ0iUS2ON5Qs29m/JkiUkJSUFdPl0Y7Wxjw9saOotAAKMGGlM6jKqhvGAcYPu9J/opQ6TyABQ+i1/qYSxfW39mzu144koyN5b1zBZX25m2eg29Co+Qff98Mpo2yBdERFpUIzJQPIuraoTgm0zp7CupkCFy2yQIU1EYhfN+OXOCVogde5LRnXSnKHUu3/XLojmhDCH/Mcc+rsGqn8uQnkNhPQ8ushbMLrG8EfAJDA7+S/+kwHO2VhFatKpO/sGtYLiyh+1B1y4sMJasNCWnp7Opk2bvOP6ahonGEpIvNrqNQBCe6amGNPShtLF06gaApXfhxzc1u48xQF7BfHNPTR908NzlUDlad4LYRzij6LsBw4AcIHPypwrRUSkIfCd+PufnAcfC1ZMQT4QHxckIDmY3Sk5NJ/RtgA2ekEerJ3CAOsyAc6ZNjMHAXEk9IC8Iy7fiAV55JFAgkvvUKubIiPm+R7TreNZZt9/QMCzhb+dZmh0cw1W/4K9BvyE+jy6SJi0ilWTElg3NcjlO1xE/+q/jIl4/uQW1CXcBbvsWsG35x1L6penssq56JoVrPJnZ40TjI2NrXGsoNUulH1eLfUcAH2/SGRvO0i2c91ls2YSjfW7ZIRxu4mxXOC5nXWoJtabY4zfdpZevWM50rsZ2dv8r5coIiJXX40n/kNSSSWPdRsdp99Hc1h3CFKHhRiAnMHLvK2alAAj5rHTZSISn2hSfuo+K+W2DcHGqpldOEllXmaI9zHU8Mc2Xph6bVX/anwN2F3W82ibufURXdpBLt+IAW3o5ewxV3qEUdaEiPbGl8lTWUXm7uM0fXMP3VZ8RbcVX/HEpkKWHDpJ5u7jZO4+Tsqaw3Rb8ZW3EGO167biK1LWHCZlzWGWHDrp3HWDVtu4PY/H460OWuEvWLWwsLAQgCFDavqQubrqPwBi9E8+0vs82fbvUXPQqt/lIvYfZFSxoztnDQq2ldkmf3EyJoOp11K4eZ/9q5nnOVAKlJZ7f4lZu8a45srqQe2JG3Qrr0Rd4Lkc5y81gduJiMiV4bt0Q7ATf+OSAHkLRtu64RljwPLslbUfWfSvniaVdUyxddksXjqeKWvdx6ptmznaqNC9V1OQszOvM1hr+LMuSXHtVP9qfQ2Y3WaDVfbqyjtO07X7rT9jPCKk/q/A51iETt3Z99RNjDUnUjQmgTkFvWPZ5zfrZzlzV5jrt52FS5iB/vhXu3mwysO228+z7fbzLI+p5KmIYhJOHuLBKg8PVnmY076M5TGVfm2s25z2ZcxpX0bCyRqmKm6ArAAY7ALub7/9tvf/k5KSePzxx/3W21ndRBtyBbBJdXX1RedCV/sP0nTbeV4ZfSdTzclX1q7Zw6jKNhxxvd5IOXNXeHguypgNs6C0nLiyUvMFaWnmtz+7gm1fmBeNN8fTlR6hzyrf7Jqu/Nq0NP5+pbMRYO5j7Zo9jHL7VI4yHhPbvqD7/gv08r7BzMdk7rNX7xt54ug/jUlfrPuJ7X6Y+4kL2M75hhURkR+NOSFHMH6BwNl2xDyze6aNs42lx2RWBXS1NBQvHc/oI08H7suVVaGz/p3A5PcCx6ptm2lM/JIwaVWN1Sg7axt3tlB4dBnjzfAb2n1u4II9Z6bUuTt5CbNNDY+55udxGy8MmEKB3/NhLFtnHdug98P9ORaRKyclJYXc3FxmzZoVMMZv6NCh3mBnXfDdLeBlZmZ6LySfk5PjXH1V7Nmzh8TERL9loQdAERERERGRa1Bubi4pKSmuAS8uLg6Px0N6ejoTJkxwDX8ej4e4OKMklpOT49rmanALgD9OF1AREREREZFGIjk5mZkzZ+LxeHj88cf9xvgVFBRw8eLFgGBo8Xg83msDzpw507VNQ6IAKCIiIiIiYc+q7lmBLjMz09kkgHWBeI/H4w2RDZ26gIqIiIiIiJjVvLffftsb/mJjY0lOTvZeCD42Npbc3FwKCwtZsmSJ30XkG8q4Pzu3LqAKgCIiIiIiIja5ubm8+OKL3slfgomNjeUvf/lLg+32qQAoIiIiIiISIqsiuGnTJr9xgRMmTCApKanBBj+LAqCIiIiIiEiYcAuAmgRGREREREQkTCgAioiIiIiIhAkFQBERERERkTChACgiIiIiIhImFABFRERERETChAKgiIiIiIhImFAAFBERERERCRMKgCIiIiIiImFCAVBERERERCRMNDl16tRF50IRERERERFp3A4fPkxiYqLfMlUARUREREREwoQCoIiIiIiISJhQABQREREREQkTCoAiIiIiIiJhQgFQREREREQkTCgAioiIiIiIhAkFQBERERERkTChACgiIiIiIhImFABFRERERETChAKgiIiIiIhImFAAFBERERERCRMKgCIiIiIiImFCAVBERERERCRMKACKiIiIiIiECQVAERERERGRMKEAKCIiIiIiEiYUAEVERERERMJEk1OnTl30/bOElU+NZeERe5NAw2bnMP0+51Kn0+z7YBmfd05j3N3tnSuD2z6HlBkbYHgWOdMGOtdeltNb5jB25gZOd59I9ptpdHY2YAdzUqaxgXgmvrOItJvNxWVbeOvtSpKmjiDesYWIiIg0Iqd28NrkabxfFML5zKl9rPzDqyzbUcjpKoho04cRU6YzMakzEc62XlWUbHqHN979O5/llXP6AkAEreP6MGT0eJ5I7Uf7CNv5jh+j3YhfPsP4n8XQ2rFW5Mdw6lAhPfZU8X1kJHsfiibGWlFRyoxPK3nzu2q+r4YWLSOYcVcnJt3a0rdx9Tn+saeU33qqyPsX0LQpfW+KYtmgTsRc52smV8/hw4dJTEz0W+aoALZn4MRMMmeat0f7GIs7D+MZa9nMTP69h/9Wrs7tYOW8lWz6usq55uooWsnvXtzAaefyEOS//wbL13zGSecKERERaTRO73+LSf9uhL9andvBq09OYuGWSmKGT2T6lDT6XL+P9zPHMm1NubO14UIhKyc/zNjM5Wwpak+/X0xk+szpTPzl/dxWtY+186Yyc02J/zbec6zpTPzlQDoc+4yVrzzO7/7qaCfyY/hnMaM+r+J75/LzZUz6+BQLvoO+N0fy5/jm9P2hihnbipnkPbev4qMtxQzPr6KkRXNm3xHJpNaw9/gp+n5cwgnHLqXhcATACGIS7+f+JPN2u1kji7yNe6xlSfcT39F/K1f5+/jMuexqOb2DOb9bSH6beOIDy361KOfQfn0Ii4iINGaFa6aR/tvl7KMPfbo71wYqWfUWa8uh89iXWTA1jWEPT2TuS+PoDHy2+mMCzwyq2DFvKgu/rKL1T55h8f8sIvM3aQxLGkbab6Yz9511rPufD5j7C8eJiPccaxhpv8lk8e+HAZD/9w0U+rcUqV/nyvj1pjPsbXodfZv7rzpx8DRL/wU3dW3P+kHRjOnflfX3tOAmqllaUGE0OlnGjOPV0LIlq0d0ZVKfaGaPaM+zzYGKc6w0m0nDc2ljAC+Us+X1qTz+cAopKSmkpD7MpHlbKDF/EPjs9V/y8O/e5zSQv2is0SZrh7ntafZ9MIdJv0g1tx3L1MWf1ViZK9/ymn/717dQfgGghPcnp5KSOon3jzm3spSz9vfT2HAqnol/mM4Dkc71NSh5n2m/GMurnwNsYFpKCikpGay0/tbpfbyfNYmHU43j8HD6VN76h++R7MhKIWX4NFZuWcnMx4z7/8sZaymsKmfLvAweHp5CSkoqY2euZJ93s9PsWzHTd2wfzmDOB/tqPD4iIiJSsw7tuhDVO42s/7uA8d2cawO1H/Uyi/+wgD8+bhv80TrK6JZ5qjLwe/nY+7y1phwYyMQXf05MM2cDiGjTuoauo6Yo8280vR7HOblIPTrD0k3f8m71dcxOak+ao7vm9xeMEWJtr7OtaN6MtgAXMCqGbTrwt5QOrE+Kpq83UVxH2+sAqqk459tUGpZLCIDlrJ0+lpl//YzK+BFMnPYM437SgX0fzGTs5JUUXoCYYZN5Isn4hatzyjNG19FHbgPgdM4cpr6+j4jEMTwz8xnS4qv47J2pzAzWnWL/QjJmvs++6/uQNmU6E4d3ofwfOzh8DrhwkqJjVXDhNGcCateGwhXP8+rnEP+/XiStax0/Stv0I23KzzE6wvYhbWYmmTOfZmB74MI+XkufxGs5x7lt+ESmT5vIwGb7WP58Oq99advHhR0snPN3IkZOZGJKDOXbX2Xq2Axmbo9ixKRnSOvdmpItC5n2Z6NeWv73OUxatIXjNw4zjm2/5nyWu4+TF2z7FBERkTppfd8zLP7jRAa2ca5xF9G6PTE/6UN7W5Ar2fIx+QB33B4wJ0D55zuMdT+5n3vsg/cuVHG6vJxy63baMTSmupKT1rqCHSx8/X1O055hj49wmatApD5Uk7erlEkV0De+I5NuDIwDMfEtGdIU8jzlLC09x4nTp1j6+TnygAdvvYEWANc156ZO7bm7rW37k5W8c8b4AWPgTbYdSoMS+IzX5stlLPxHFdzxDIv+8Cxpw3/Oky8vYPr9QN5C/rK1ivYJ93NPvPHp1zr+HqPraIIxEUzr4VmsW5fN3BlP8vPBIxj/v35GDPDZhk9xi4BV/zxOOdD5gSeY+PAw0qbOZfGSZxnYGmjWh2eyP+CDDxYzzqU7x+ntc5i6KJ/2w7P4wy8v4WO0ZQz9kvqZH8Cd6Zd0P/cn9SOmJZSv+wvvl0P8r15m+uMP0C/xAZ7+/57hfsp5/70t2D/eh01fzPRHf07ajOmM6wzl5RGMe2kuEx/+ORNffIJ+wOl9hykBykuMDh/9fjnZOLaZC/jrH9Jcf0kUERGRK+P0/rf4/Vv50Kwfzz4VOEldVWWl8T83dsBv6ruS9/ndL3/JL63bAscAmYLlTLLWPTmNlXntGTj1ZZ4bqClg5MdxKv8bhuf/izad2rH6rijnasMNnVk2sAUx/6piUs439FhdyqST1fTt1oF3erVwtjac+5aXtp8hDxiS0IEH654y5Aqp81NTsu8rTgMxA/vZPuBa06eX8VvYZ3sP21q7sHcBHZ7Kw5OXG33cK0/7hSZLROIIhrWHkhWTSP3FJGYuXkv+KXuD1rS2TUbkVbSS383cQHnXNKY/dRtV5eWUl5+kstr3a5vzR7i6OLzX+ADPX5zh+1BPe5UtAN8YodXLG95aExVp/tf6XG/v/0URP+znxDeDHa88zMPpU3l1xQ5v11oRERG58k7vf4vfTV5OPjH8/JVMRrjMhRARZZ5IFxX6jw/sPIL/fDmTzEnD3Ct6fhPtTWfcfbBjbgapv13pMs5Q5DL9s5hRe85zqmULlt0Vyfenz3Hi9A9UVAPV1Zw4fY5T/4JT+UXc8cn3FLaMYPYdbVjWrw3Ptm/K3q9P0ndTWeCkMee+5aWPy3j1DMTc0p5ld9ZlzJVcaXUOgJenih3z0pk0bwPH4x5g4rQaPhAtrQcyPfuvLJo5kQfiT7LjnVfJ+KVtHF4whYfJv2AEwalp1i9vk1he4Pu1bf4u50Z1YHbi7/OobdZU6/bMAzU/ppp0TWPRB4uZO2Uc/VoeZu2iaYwd+yo71I9aRETkijv9+WtM8oa/BTzzE/fKXPuB9xtDRvK28GmZbUWz1sTffT/3332b+2Ud/CbaG8aTszP5eWsg7+9sCGW2UpG6+PYH9lYD577noXXf0GP1N/RYfZJXzwHnzjF89TdM9Zxh6YHznKIpz94dw6Q+nXgooRMvPNCWp5rBieOnWWkfBHvuJM9+5At/WwZ3IMSe1nKV1DkAdu5zO62Bwh2f2apcp9l3IB+Afn2NsX7uPuPjNeUQ9yRz//AsacPv5/7E2NoHOUe0Jz4pjWdfyeavU/vBhXw+3mL+LlZ1mtNu4ei+p1ngDGYzn2FYZ+vXtizG93VuFLp+/e8HoPBsa9+sqUn3c/+9Axl4Rx2ue+imZQz9Hn6SzDc+YMEv20P5Wj5uMFOqioiIXJuqTp+myjbm/vT2V0l/7n0KiWfc/ODhD4COIxg/sj2wj9deWE7hpfbeuXCaynMA13N9rTPGiNRRfEfW9zMqer5bJGOaA80jeLVfO56zroMNnL9Qbd860LkyJq0t581z0De2o8JfI1HnAMgdT/BcUgR8+RoZv3uVlevf563nJzFnC5AwkScGG59W7Tt1ASD/r3OYM3sqr206DXSg881Awf/w6uvv8/7imTye8RaFNYxvO50zk5Thv2Tq3JVs+GAhM9/+DOjMwAGdjYlYxj7Mww8/znLnxeubtaePPZgl3c/9SfdwW6T1a9tAYmr4HPfpQOfOABtY+PyrzJy5nPwLEDH4CSYmwOkPpvJL6zjMnsovR6Yy9TKu3ZP/57GkpD7OzMXvs2HFHF79oBya3c+Qfs6WIiIiErpy8jdtYcumLXxmfk2XfGX8O78M+PI1xj78MKnpb5FvziOQPmMt5Rfa0+/ff06Pf37GFnP7LZv2mbOR20UwcMpcnr27PeS9xeMPP87MuW/x/qb3eWvuTDKeXmhMEuN05jCfmvvdsGIh056cxoYL0H74k4y45O5EIkE0jeTuBKOi57tFced1wHXX82BCRxJaRpLW9XqgmgXbCxjzaTF/++IbxvytnDcvQJtOrRnd2ryMxJpvWfoDtGnbkqfa/cDmvFL+Zt7+UVFLeJSrpu4BkNbcPyObzF/2Iyp/LQuzXmP55yfp83Am2fN9k5VEJD3Bs/d3JqJ8Hxu2HqewqJAq4vn3aePo17qcfX99jYU58LM//JXMwc6/4dM6MY1nUrpweP1C5sxbyeFW/UjL/CNPdgeadaDrzRHQrDWRQcajXr54/v0/04hvDYX/WMtnpR4KS4BmMaTNzybz4T5U7TePwz/KiflFJtMfvvRP7K4/e5q0O+Cz7NeYs2gLJ+OH8cz857jfbZyjiIiIhOgw/zdzJjMzZ7LSnK173wrj3//3ENC+K10iIKJ9B1pTwtrFG8yeTuV8lv0qM81tjdt8Pnb7rbdZDCNezib75YkMi6/ks3XLeS3zNZav2UFJ6z4My8hi8RTHBDIlG3jN3O+cRSvZd7YPw6YsYMl/DnTvMipyBdx0Z1cO3d2Sh5rDR54zjD9wjo9+uI4xvTrwZXJH2gCF+07x7r+M9qcqzjHps1OMt91+m3/GuVtpIJqcOnXKuNCHiIiIiIiIXDMOHz5MYmKi37JLqACKiIiIiIhIY6QAKCIiIiIiEiYUAEVERERERMKEAqCIiIiIiEiYUAAUEREREREJEwqAIiIiIiIiYUIBUEREREREJEwoAIqIiIiIiIQJBUAREREREZEwoQAoIiIiIiISJhQARUREREREwoQCoIiIiIiISJhQABQREREREQkTCoAiIiIiIiJhQgFQREREREQkTDS5ePHiRedCERERERERadx2795NYmKi3zJVAEVERERERMKEAqCIiIiIiEiYUAAUEREREREJEwqAIiIiIiIiYUIBUEREREREJEwoAIqIiIiIiISJ/x8cFJsv8D5zFgAAAABJRU5ErkJggg==;" vertex="1" parent="1">
          <mxGeometry x="80" y="80" width="896" height="629" as="geometry" />
        </mxCell>
        <mxCell id="-OvGYXSZSJ38qiEq_mE2-45" value="" style="rounded=0;whiteSpace=wrap;html=1;fillColor=none;strokeWidth=8;strokeColor=#b85450;" vertex="1" parent="1">
          <mxGeometry x="80" y="480" width="140" height="40" as="geometry" />
        </mxCell>
        <mxCell id="-OvGYXSZSJ38qiEq_mE2-46" value="Click!" style="rounded=0;whiteSpace=wrap;html=1;fillColor=#f8cecc;strokeColor=#b85450;fillStyle=auto;fontFamily=Comic Sans MS;strokeWidth=1;fontSize=19;" vertex="1" parent="1">
          <mxGeometry x="280" y="480" width="120" height="40" as="geometry" />
        </mxCell>
        <mxCell id="-OvGYXSZSJ38qiEq_mE2-47" value="" style="shape=flexArrow;endArrow=classic;html=1;rounded=0;entryX=1;entryY=0.5;entryDx=0;entryDy=0;exitX=0;exitY=0.5;exitDx=0;exitDy=0;fillColor=default;" edge="1" parent="1" source="-OvGYXSZSJ38qiEq_mE2-46" target="-OvGYXSZSJ38qiEq_mE2-45">
          <mxGeometry width="50" height="50" relative="1" as="geometry">
            <mxPoint x="340" y="530" as="sourcePoint" />
            <mxPoint x="390" y="480" as="targetPoint" />
          </mxGeometry>
        </mxCell>
      </root>
    </mxGraphModel>
  </diagram>
</mxfile>
